<svg width="46" height="47" viewBox="0 0 46 47" fill="none" xmlns="http://www.w3.org/2000/svg">
<path d="M23 6.79517C24.3911 6.79525 25.5379 8.50458 26.8203 8.84692C28.1462 9.19997 29.9942 8.30572 31.1543 8.97681C32.3333 9.65891 32.4743 11.7109 33.4307 12.6672C34.3871 13.6236 36.4391 13.7644 37.1211 14.9436C37.7922 16.1038 36.8978 17.9517 37.251 19.2776C37.5933 20.5601 39.3027 21.7067 39.3027 23.0979C39.3026 24.489 37.5933 25.6358 37.251 26.9182C36.8979 28.2441 37.7922 30.092 37.1211 31.2522C36.439 32.4313 34.3871 32.5722 33.4307 33.5286C32.4743 34.485 32.3334 36.5369 31.1543 37.219C29.9941 37.8901 28.1462 36.9958 26.8203 37.3489C25.5379 37.6912 24.3911 39.4005 23 39.4006C21.6088 39.4006 20.4622 37.6912 19.1797 37.3489C17.8538 36.9957 16.0059 37.8901 14.8457 37.219C13.6665 36.537 13.5257 34.485 12.5693 33.5286C11.613 32.5722 9.56101 32.4312 8.87891 31.2522C8.20782 30.0921 9.10207 28.2441 8.74902 26.9182C8.40668 25.6358 6.69735 24.489 6.69727 23.0979C6.69727 21.7067 8.40667 20.5601 8.74902 19.2776C9.10221 17.9516 8.20779 16.1038 8.87891 14.9436C9.56092 13.7644 11.6129 13.6236 12.5693 12.6672C13.5257 11.7108 13.6665 9.65882 14.8457 8.97681C16.0059 8.30569 17.8537 9.20011 19.1797 8.84692C20.4622 8.50457 21.6088 6.79517 23 6.79517ZM28.9746 17.7161C28.7401 17.7161 28.5077 17.762 28.291 17.8518C28.0744 17.9416 27.8777 18.0736 27.7119 18.2395L21.5059 24.4456L18.2891 21.2317C17.9535 20.8964 17.4978 20.7073 17.0234 20.7073C16.5492 20.7074 16.0942 20.8965 15.7588 21.2317C15.4237 21.5672 15.2354 22.0221 15.2354 22.4963C15.2354 22.9706 15.4236 23.4255 15.7588 23.761L20.2725 28.2737C20.599 28.5999 21.0414 28.7834 21.5029 28.7834C21.9645 28.7834 22.4068 28.5999 22.7334 28.2737L30.2383 20.7698C30.5736 20.4343 30.7617 19.9785 30.7617 19.5042C30.7616 19.03 30.5735 18.5749 30.2383 18.2395C30.0725 18.0736 29.8758 17.9416 29.6592 17.8518C29.4424 17.7619 29.2093 17.7161 28.9746 17.7161Z" fill="#F2F2E8"/>
</svg>
