<svg width="46" height="47" viewBox="0 0 46 47" fill="none" xmlns="http://www.w3.org/2000/svg">
<path d="M40.1435 23.0903C40.1435 21.1703 39.0082 19.4674 37.2748 18.7169C37.6482 18.0273 37.8425 17.2502 37.8425 16.4463C37.8425 13.9358 35.8881 11.871 33.4195 11.6881C33.4347 11.5395 33.4386 11.3834 33.4386 11.231V11.1624C33.4005 8.56424 31.2785 6.45752 28.6689 6.45752C26.2803 6.45752 24.2802 8.19851 23.945 10.5338C23.9069 10.5948 23.884 10.6633 23.884 10.7395V35.4525C23.884 35.5211 23.9069 35.582 23.9412 35.6392C24.2688 37.9859 26.2765 39.7383 28.6689 39.7383C31.2823 39.7383 33.4119 37.624 33.4386 35.0182V34.9687C33.4386 34.8811 33.4309 34.7935 33.4271 34.7096V34.6677C33.4271 34.6182 33.4271 34.5649 33.4195 34.5115C35.8881 34.3249 37.8425 32.2562 37.8425 29.7419C37.8425 28.9457 37.6482 28.1723 37.2748 27.4828C39.0082 26.7247 40.1473 25.018 40.1473 23.0979L40.1435 23.0903ZM17.3201 6.46133C14.7105 6.46133 12.5885 8.56424 12.5504 11.1662V11.2348C12.5504 11.391 12.5581 11.5434 12.5695 11.6919C10.1008 11.8748 8.14651 13.9396 8.14651 16.4501C8.14651 17.254 8.3408 18.0273 8.71415 18.7207C6.98839 19.4674 5.85693 21.1703 5.85693 23.0941C5.85693 25.018 6.98839 26.7209 8.71415 27.479C8.3408 28.1685 8.14651 28.9419 8.14651 29.7381C8.14651 32.2562 10.1008 34.3249 12.5695 34.5077C12.5657 34.5611 12.5657 34.6144 12.5619 34.6677C12.5542 34.7668 12.5504 34.8658 12.5504 34.9649V35.0144C12.5771 37.624 14.7067 39.7345 17.3201 39.7345C19.7049 39.7345 21.7087 37.9935 22.044 35.6582C22.0821 35.5973 22.1049 35.5287 22.1049 35.4525V10.7433C22.1036 10.677 22.0838 10.6124 22.0478 10.5567C21.724 8.20994 19.7163 6.45752 17.3201 6.45752V6.46133Z" fill="#F2F2E8"/>
</svg>
