<svg width="46" height="47" viewBox="0 0 46 47" fill="none" xmlns="http://www.w3.org/2000/svg">
<path d="M33.35 12.3167H12.65C11.5875 12.3166 10.568 12.7367 9.81401 13.4854C9.06 14.234 8.63259 15.2504 8.625 16.3129V34.2673C8.63259 35.3298 9.06 36.3462 9.81401 37.0948C10.568 37.8434 11.5875 38.2635 12.65 38.2635H15.0938V40.4916C15.0934 41.01 15.2405 41.5177 15.518 41.9555C15.7954 42.3933 16.1918 42.7432 16.6606 42.9641C17.0308 43.1328 17.4326 43.221 17.8394 43.2229C18.4708 43.2212 19.0815 42.9973 19.5644 42.5904L24.7681 38.2779H33.3931C34.4506 38.2666 35.4612 37.8395 36.2063 37.089C36.9515 36.3385 37.3713 35.3249 37.375 34.2673V16.3129C37.3674 15.2504 36.94 14.234 36.186 13.4854C35.432 12.7367 34.4125 12.3166 33.35 12.3167ZM25.875 30.0842H15.8125C15.4313 30.0842 15.0656 29.9327 14.796 29.6631C14.5265 29.3935 14.375 29.0279 14.375 28.6467C14.375 28.2654 14.5265 27.8998 14.796 27.6302C15.0656 27.3606 15.4313 27.2092 15.8125 27.2092H25.875C26.2562 27.2092 26.6219 27.3606 26.8915 27.6302C27.1611 27.8998 27.3125 28.2654 27.3125 28.6467C27.3125 29.0279 27.1611 29.3935 26.8915 29.6631C26.6219 29.9327 26.2562 30.0842 25.875 30.0842ZM30.1875 23.8598H15.8125C15.4313 23.8598 15.0656 23.7083 14.796 23.4387C14.5265 23.1692 14.375 22.8035 14.375 22.4223C14.375 22.041 14.5265 21.6754 14.796 21.4058C15.0656 21.1362 15.4313 20.9848 15.8125 20.9848H30.1875C30.5687 20.9848 30.9344 21.1362 31.204 21.4058C31.4736 21.6754 31.625 22.041 31.625 22.4223C31.625 22.8035 31.4736 23.1692 31.204 23.4387C30.9344 23.7083 30.5687 23.8598 30.1875 23.8598ZM5.75 30.8748C4.9875 30.8748 4.25623 30.5719 3.71707 30.0327C3.1779 29.4935 2.875 28.7623 2.875 27.9998V21.531C2.875 20.7685 3.1779 20.0373 3.71707 19.4981C4.25623 18.9589 4.9875 18.656 5.75 18.656V30.8748ZM40.25 18.656V30.8748C41.0125 30.8748 41.7438 30.5719 42.2829 30.0327C42.8221 29.4935 43.125 28.7623 43.125 27.9998V21.531C43.125 20.7685 42.8221 20.0373 42.2829 19.4981C41.7438 18.9589 41.0125 18.656 40.25 18.656ZM30.1875 9.44165V4.4104C30.1875 4.02915 30.3389 3.66352 30.6085 3.39393C30.8781 3.12435 31.2438 2.9729 31.625 2.9729C32.0062 2.9729 32.3719 3.12435 32.6415 3.39393C32.9111 3.66352 33.0625 4.02915 33.0625 4.4104V9.44165H30.1875Z" fill="#F2F2E8"/>
</svg>
