<svg width="136" height="49" viewBox="0 0 136 49" fill="none" xmlns="http://www.w3.org/2000/svg">
<rect x="0.75" y="0.75" width="134.5" height="37.5" rx="18.75" fill="url(#paint0_linear_150_3809)"/>
<rect x="0.75" y="0.75" width="134.5" height="37.5" rx="18.75" stroke="url(#paint1_linear_150_3809)" stroke-width="1.5"/>
<path d="M25.0869 24C25.0459 24 25.0186 23.9727 25.0186 23.9316V14.2656C25.0186 14.2246 25.0459 14.1973 25.0869 14.1973H28.9082C30.7129 14.1973 32.0391 15.5098 32.0391 17.3213C32.0391 19.126 30.7129 20.4453 28.9082 20.4453H26.707C26.666 20.4453 26.6387 20.4727 26.6387 20.5137V23.9316C26.6387 23.9727 26.6113 24 26.5703 24H25.0869ZM26.6387 19.0098C26.6387 19.0508 26.666 19.0781 26.707 19.0781H28.6553C29.667 19.0781 30.4121 18.333 30.4121 17.3213C30.4121 16.3027 29.667 15.5645 28.6553 15.5645H26.707C26.666 15.5645 26.6387 15.5918 26.6387 15.6328V19.0098ZM35.5664 24.1367C33.7207 24.1367 32.668 23.3096 32.668 21.915C32.668 20.5957 33.6045 19.707 35.3545 19.707H37.5488C37.5898 19.707 37.6172 19.6797 37.6172 19.6387V19.5225C37.6172 18.6338 37.084 18.1553 36.0654 18.1553C35.1631 18.1553 34.6436 18.5312 34.5068 19.2422C34.4932 19.2832 34.4727 19.3037 34.4316 19.3037H32.9961C32.9551 19.3037 32.9209 19.2764 32.9277 19.2285C33.1465 17.7588 34.2402 16.9316 36.0859 16.9316C38.0342 16.9316 39.1689 17.9434 39.1689 19.5361V22.4619C39.1689 22.667 39.2646 22.7627 39.4697 22.7627H39.7705C39.8115 22.7627 39.8389 22.79 39.8389 22.8311V23.9316C39.8389 23.9727 39.8115 24 39.7705 24H38.9023C38.3965 24 38.041 23.8359 37.8838 23.4736C37.8633 23.4258 37.8359 23.4121 37.8018 23.4463C37.2822 23.9658 36.4141 24.1367 35.5664 24.1367ZM35.7373 22.9473C36.8994 22.9473 37.6377 22.4004 37.6377 21.1562V21.0195C37.6377 20.9785 37.6104 20.9512 37.5693 20.9512H35.5459C34.623 20.9512 34.2334 21.2656 34.2334 21.874C34.2334 22.5508 34.7393 22.9473 35.7373 22.9473ZM39.8525 26.4609C39.8115 26.4609 39.7842 26.4336 39.7842 26.3926V25.1963C39.7842 25.1553 39.8115 25.1279 39.8525 25.1279H41.165C42.3271 25.1279 42.2178 24.2324 41.8145 23.1729L39.6543 17.1436C39.6406 17.0957 39.6611 17.0684 39.709 17.0684H41.2334C41.2676 17.0684 41.3018 17.0889 41.3154 17.123L42.9082 22.0586C42.9287 22.127 42.9697 22.127 42.9902 22.0586L44.583 17.123C44.5967 17.0889 44.6309 17.0684 44.665 17.0684H46.1963C46.2441 17.0684 46.2646 17.0957 46.251 17.1436L43.3525 25.3125C43.0381 26.1738 42.5732 26.4609 41.8213 26.4609H39.8525ZM51.2344 24C51.1934 24 51.166 23.9795 51.1592 23.9385L49.5049 17.1436C49.4912 17.0957 49.5117 17.0684 49.5596 17.0684H51.0977C51.1387 17.0684 51.166 17.0889 51.1729 17.1299L52.2324 22.4072C52.2461 22.4688 52.2939 22.4688 52.3145 22.4072L53.7295 17.1299C53.7363 17.0957 53.7637 17.0684 53.8047 17.0684H55.4658C55.5068 17.0684 55.5342 17.0957 55.541 17.1299L56.9561 22.3936C56.9766 22.4551 57.0244 22.4551 57.0381 22.3936L58.0977 17.1299C58.1045 17.0889 58.1318 17.0684 58.1729 17.0684H59.7041C59.752 17.0684 59.7725 17.0957 59.7588 17.1436L58.1182 23.9385C58.1113 23.9795 58.084 24 58.043 24H56.0264C55.9854 24 55.958 23.9795 55.9512 23.9385L54.6797 18.7705C54.666 18.709 54.6113 18.7021 54.5977 18.7705L53.3193 23.9385C53.3125 23.9795 53.2852 24 53.2441 24H51.2344ZM60.4902 24C60.4492 24 60.4219 23.9727 60.4219 23.9316V17.1367C60.4219 17.0957 60.4492 17.0684 60.4902 17.0684H61.9121C61.9531 17.0684 61.9805 17.0957 61.9805 17.1367V23.9316C61.9805 23.9727 61.9531 24 61.9121 24H60.4902ZM60.4902 15.8174C60.4492 15.8174 60.4219 15.79 60.4219 15.749V14.2656C60.4219 14.2246 60.4492 14.1973 60.4902 14.1973H61.9121C61.9531 14.1973 61.9805 14.2246 61.9805 14.2656V15.749C61.9805 15.79 61.9531 15.8174 61.9121 15.8174H60.4902ZM65.6582 24C64.6602 24 64.1611 23.5146 64.1611 22.5029V18.3467C64.1611 18.3057 64.1338 18.2783 64.0928 18.2783H62.8076C62.7666 18.2783 62.7393 18.251 62.7393 18.21V17.1367C62.7393 17.0957 62.7666 17.0684 62.8076 17.0684H63.498C63.9697 17.0684 64.2363 16.8018 64.2363 16.3232V15.1133C64.2363 15.0723 64.2637 15.0449 64.3047 15.0449H65.6514C65.6924 15.0449 65.7197 15.0723 65.7197 15.1133V17C65.7197 17.041 65.7471 17.0684 65.7881 17.0684H67.0664C67.1074 17.0684 67.1348 17.0957 67.1348 17.1367V18.21C67.1348 18.251 67.1074 18.2783 67.0664 18.2783H65.7881C65.7471 18.2783 65.7197 18.3057 65.7197 18.3467V22.0996C65.7197 22.5439 65.8428 22.667 66.2871 22.667H67.0664C67.1074 22.667 67.1348 22.6943 67.1348 22.7354V23.9316C67.1348 23.9727 67.1074 24 67.0664 24H65.6582ZM68.2012 24C68.1602 24 68.1328 23.9727 68.1328 23.9316V14.2656C68.1328 14.2246 68.1602 14.1973 68.2012 14.1973H69.623C69.6641 14.1973 69.6914 14.2246 69.6914 14.2656V17.5605C69.6914 17.6221 69.7324 17.6426 69.7734 17.5947C70.1904 17.1846 70.8604 16.9316 71.5303 16.9316C73.335 16.9316 74.3604 17.8271 74.3604 19.5566V23.9316C74.3604 23.9727 74.333 24 74.292 24H72.877C72.8359 24 72.8086 23.9727 72.8086 23.9316V19.8301C72.8086 18.8047 72.248 18.2305 71.2568 18.2305C70.2725 18.2305 69.6914 18.873 69.6914 19.9395V23.9316C69.6914 23.9727 69.6641 24 69.623 24H68.2012ZM80.54 24C80.499 24 80.4717 23.9795 80.4648 23.9385L78.6328 14.2725C78.626 14.2314 78.6465 14.1973 78.6943 14.1973H80.2393C80.2803 14.1973 80.3076 14.2178 80.3145 14.2588L81.6543 21.9082C81.668 21.9697 81.7227 21.9766 81.7363 21.915L83.6094 14.2588C83.6162 14.2178 83.6436 14.1973 83.6846 14.1973H85.1748C85.2158 14.1973 85.2432 14.2178 85.25 14.2588L87.1162 21.8945C87.1299 21.9561 87.1846 21.9492 87.1982 21.8877L88.5449 14.2588C88.5518 14.2178 88.5791 14.1973 88.6201 14.1973H90.165C90.2129 14.1973 90.2334 14.2314 90.2266 14.2725L88.3945 23.9385C88.3877 23.9795 88.3604 24 88.3193 24H86.1797C86.1387 24 86.1113 23.9727 86.1045 23.9385L84.4639 16.9658C84.4502 16.9043 84.3955 16.9043 84.3818 16.9658L82.7549 23.9385C82.748 23.9727 82.7207 24 82.6797 24H80.54ZM93.8223 24.1367C91.9766 24.1367 90.9238 23.3096 90.9238 21.915C90.9238 20.5957 91.8604 19.707 93.6104 19.707H95.8047C95.8457 19.707 95.873 19.6797 95.873 19.6387V19.5225C95.873 18.6338 95.3398 18.1553 94.3213 18.1553C93.4189 18.1553 92.8994 18.5312 92.7627 19.2422C92.749 19.2832 92.7285 19.3037 92.6875 19.3037H91.252C91.2109 19.3037 91.1768 19.2764 91.1836 19.2285C91.4023 17.7588 92.4961 16.9316 94.3418 16.9316C96.29 16.9316 97.4248 17.9434 97.4248 19.5361V22.4619C97.4248 22.667 97.5205 22.7627 97.7256 22.7627H98.0264C98.0674 22.7627 98.0947 22.79 98.0947 22.8311V23.9316C98.0947 23.9727 98.0674 24 98.0264 24H97.1582C96.6523 24 96.2969 23.8359 96.1396 23.4736C96.1191 23.4258 96.0918 23.4121 96.0576 23.4463C95.5381 23.9658 94.6699 24.1367 93.8223 24.1367ZM93.9932 22.9473C95.1553 22.9473 95.8936 22.4004 95.8936 21.1562V21.0195C95.8936 20.9785 95.8662 20.9512 95.8252 20.9512H93.8018C92.8789 20.9512 92.4893 21.2656 92.4893 21.874C92.4893 22.5508 92.9951 22.9473 93.9932 22.9473ZM100.412 24C100.378 24 100.344 23.9863 100.33 23.9453L97.9102 17.1436C97.8965 17.0957 97.917 17.0684 97.9648 17.0684H99.4893C99.5234 17.0684 99.5576 17.0889 99.5713 17.123L101.226 22.2773C101.246 22.3457 101.287 22.3457 101.308 22.2773L102.962 17.123C102.976 17.0889 103.01 17.0684 103.044 17.0684H104.568C104.616 17.0684 104.637 17.0957 104.623 17.1436L102.203 23.9453C102.189 23.9863 102.155 24 102.121 24H100.412ZM108.048 24.1367C105.929 24.1367 104.589 22.7422 104.589 20.5342C104.589 18.3262 106.011 16.9316 108.055 16.9316C109.969 16.9316 111.322 18.1553 111.329 20.4863L111.315 20.9512C111.315 20.999 111.288 21.0195 111.247 21.0195H106.175C106.134 21.0195 106.1 21.0469 106.106 21.0947C106.284 22.291 107.022 22.9062 108.068 22.9062C108.759 22.9062 109.354 22.6055 109.661 21.8467C109.675 21.8125 109.702 21.792 109.736 21.792H111.131C111.179 21.792 111.199 21.8262 111.186 21.8809C110.769 23.4873 109.545 24.1367 108.048 24.1367ZM106.161 19.6797C106.154 19.7275 106.175 19.7549 106.223 19.7549H109.743C109.784 19.7549 109.818 19.7275 109.805 19.6797C109.654 18.6885 108.991 18.1553 108.082 18.1553C107.063 18.1553 106.394 18.7227 106.161 19.6797Z" fill="#F2F2E8"/>
<path d="M49.5686 48.8283L46.1499 45.4102L44.4928 47.0673C44.3498 47.2104 44.1421 47.2693 43.9441 47.2236C43.8468 47.2006 43.7571 47.1532 43.6834 47.0858C43.6097 47.0184 43.5544 46.9333 43.5229 46.8385L40.2082 36.8947C40.1737 36.7915 40.1686 36.6807 40.1936 36.5748C40.2186 36.4688 40.2725 36.372 40.3495 36.295C40.5057 36.1388 40.7386 36.0816 40.9492 36.1537L50.893 39.4684C50.9877 39.4999 51.0729 39.5552 51.1403 39.6289C51.2077 39.7026 51.2551 39.7923 51.278 39.8896C51.3009 39.9868 51.2985 40.0882 51.2712 40.1842C51.2438 40.2803 51.1924 40.3677 51.1218 40.4383L49.4647 42.0954L52.8828 45.5141C53.1117 45.7429 53.1117 46.1138 52.8828 46.3426L50.3971 48.8283C50.1682 49.0572 49.7975 49.0572 49.5686 48.8283ZM40.6716 33.6875C40.3478 33.6875 40.0857 33.4254 40.0857 33.1016V29.5859C40.0857 29.2621 40.3478 29 40.6716 29C40.9955 29 41.2576 29.2621 41.2576 29.5859V33.1016C41.2576 33.4254 40.9955 33.6875 40.6716 33.6875ZM37.7717 34.5458L35.2855 32.0596C35.0566 31.8307 35.0566 31.4599 35.2855 31.231C35.5143 31.0021 35.8851 31.0021 36.114 31.231L38.6002 33.7172C38.8291 33.9461 38.8291 34.3169 38.6002 34.5458C38.3714 34.7747 38.0006 34.7747 37.7717 34.5458ZM35.2855 42.0034C35.0566 41.7745 35.0566 41.4037 35.2855 41.1748L37.7717 38.6886C38.0005 38.4597 38.3714 38.4597 38.6002 38.6886C38.8291 38.9175 38.8291 39.2883 38.6002 39.5171L36.114 42.0034C35.8851 42.2322 35.5144 42.2322 35.2855 42.0034ZM42.743 34.5458C42.5141 34.317 42.5141 33.9461 42.743 33.7173L45.2292 31.2311C45.4581 31.0022 45.8289 31.0022 46.0578 31.2311C46.2866 31.4599 46.2866 31.8307 46.0578 32.0596L43.5716 34.5458C43.3427 34.7747 42.9719 34.7747 42.743 34.5458ZM37.156 37.2031H33.6404C33.3165 37.2031 33.0544 36.9411 33.0544 36.6172C33.0544 36.2933 33.3165 36.0313 33.6404 36.0313H37.156C37.4799 36.0313 37.7419 36.2933 37.7419 36.6172C37.7419 36.9411 37.4799 37.2031 37.156 37.2031Z" fill="white"/>
<defs>
<linearGradient id="paint0_linear_150_3809" x1="0" y1="19.5" x2="136" y2="19.5" gradientUnits="userSpaceOnUse">
<stop stop-color="#2477F1"/>
<stop offset="1" stop-color="#15458B"/>
</linearGradient>
<linearGradient id="paint1_linear_150_3809" x1="0" y1="19.5" x2="136" y2="19.5" gradientUnits="userSpaceOnUse">
<stop stop-color="#15458B"/>
<stop offset="1" stop-color="#2477F1"/>
</linearGradient>
</defs>
</svg>
