<svg width="88" height="41" viewBox="0 0 88 41" fill="none" xmlns="http://www.w3.org/2000/svg">
<g clip-path="url(#clip0_150_3786)">
<path d="M67.4688 40.6211C78.5144 40.6211 87.4688 31.6668 87.4688 20.6211C87.4688 9.5754 78.5144 0.621094 67.4688 0.621094C56.4231 0.621094 47.4688 9.5754 47.4688 20.6211C47.4688 31.6668 56.4231 40.6211 67.4688 40.6211Z" fill="#2A5ADA"/>
<path d="M67.4688 8.12109L65.22 9.43984L59.0938 13.0523L56.8438 14.3711V26.8711L59.0925 28.1898L65.2763 31.8023L67.525 33.1211L69.7738 31.8023L75.845 28.1898L78.0938 26.8711V14.3711L75.845 13.0523L69.7175 9.43984L67.4688 8.12109ZM61.3412 24.2336V17.0086L67.4688 13.3961L73.5963 17.0086V24.2336L67.4688 27.8461L61.3412 24.2336Z" fill="white"/>
</g>
<g clip-path="url(#clip1_150_3786)">
<path d="M43.7446 40.6211C54.7903 40.6211 63.7446 31.6668 63.7446 20.6211C63.7446 9.5754 54.7903 0.621094 43.7446 0.621094C32.6989 0.621094 23.7446 9.5754 23.7446 20.6211C23.7446 31.6668 32.6989 40.6211 43.7446 40.6211Z" fill="#26A17B"/>
<path fill-rule="evenodd" clip-rule="evenodd" d="M46.1471 22.3505V22.348C46.0096 22.358 45.3009 22.4005 43.7196 22.4005C42.4571 22.4005 41.5684 22.363 41.2559 22.348V22.3518C36.3959 22.138 32.7684 21.2918 32.7684 20.2793C32.7684 19.268 36.3959 18.4218 41.2559 18.2043V21.5093C41.5734 21.5318 42.4834 21.5855 43.7409 21.5855C45.2496 21.5855 46.0059 21.523 46.1471 21.5105V18.2068C50.9971 18.423 54.6159 19.2693 54.6159 20.2793C54.6159 21.2918 50.9971 22.1355 46.1471 22.3505ZM46.1471 17.863V14.9055H52.9146V10.3955H34.4884V14.9055H41.2559V17.8618C35.7559 18.1143 31.6196 19.2043 31.6196 20.5093C31.6196 21.8143 35.7559 22.903 41.2559 23.1568V32.6343H46.1471V23.1543C51.6384 22.9018 55.7646 21.813 55.7646 20.5093C55.7646 19.2055 51.6384 18.1168 46.1471 17.863Z" fill="white"/>
</g>
<g clip-path="url(#clip2_150_3786)">
<path d="M40.0208 20.6211C40.0208 24.5767 38.8478 28.4435 36.6502 31.7325C34.4525 35.0215 31.329 37.5849 27.6744 39.0987C24.0199 40.6124 19.9986 41.0085 16.119 40.2368C12.2393 39.4651 8.67568 37.5603 5.87862 34.7632C3.08158 31.9662 1.17676 28.4025 0.405055 24.5229C-0.366649 20.6433 0.0294176 16.6219 1.54317 12.9674C3.05692 9.3129 5.62037 6.18933 8.90936 3.9917C12.1983 1.79407 16.0651 0.621094 20.0208 0.621094C25.3251 0.621094 30.4122 2.72823 34.1629 6.47896C37.9136 10.2297 40.0208 15.3168 40.0208 20.6211Z" fill="#F7931A"/>
<path fill-rule="evenodd" clip-rule="evenodd" d="M14.2355 9.75346L18.8318 10.9844L19.8591 7.15527L22.1573 7.77891L21.17 11.4498L23.0445 11.9535L24.0336 8.24255L26.3718 8.868L25.3645 12.5989C25.3645 12.5989 29.1827 13.4444 30.0809 16.5498C30.9791 19.6553 28.1064 21.2862 27.2191 21.348C27.2191 21.348 30.5645 23.1825 29.4155 26.7916C28.2664 30.4007 24.7391 31.0462 21.0282 30.2189L20.0209 34.088L17.6827 33.4625L18.71 29.6535L16.8555 29.148L15.8282 32.9844L13.5082 32.3607L14.5373 28.5425L9.81909 27.2698L11.0082 24.6298C11.0082 24.6298 12.3391 24.9935 12.8427 25.1135C13.3464 25.2335 13.67 24.7098 13.8118 24.1862C13.9536 23.6625 16.09 14.9844 16.2918 14.2698C16.4936 13.5553 16.4118 12.9971 15.5645 12.7771C14.7173 12.5571 13.5645 12.2135 13.5645 12.2135L14.2355 9.75346ZM18.8718 21.2462L17.5991 26.3062C17.5991 26.3062 23.91 28.5844 24.7173 25.3789C25.5245 22.1735 18.8718 21.2462 18.8718 21.2462ZM19.4573 18.8462L20.7064 14.2098C20.7064 14.2098 26.11 15.1771 25.4445 17.7571C24.7791 20.3371 21.5936 19.348 19.4573 18.8462Z" fill="white"/>
</g>
<defs>
<clipPath id="clip0_150_3786">
<rect width="40" height="40" fill="white" transform="translate(47.4688 0.621094)"/>
</clipPath>
<clipPath id="clip1_150_3786">
<rect width="40" height="40" fill="white" transform="translate(23.7446 0.621094)"/>
</clipPath>
<clipPath id="clip2_150_3786">
<rect width="40" height="40" fill="white" transform="translate(0.020752 0.621094)"/>
</clipPath>
</defs>
</svg>
