<svg width="46" height="47" viewBox="0 0 46 47" fill="none" xmlns="http://www.w3.org/2000/svg">
<path d="M38.76 10.6025H7.24041C5.74549 10.6025 4.5293 11.8187 4.5293 13.3136V32.8819C4.5293 34.3768 5.74549 35.593 7.24041 35.593H38.7599C40.2549 35.593 41.471 34.3768 41.471 32.8819V13.3136C41.4711 11.8187 40.2549 10.6025 38.76 10.6025ZM15.8929 26.8742H19.555C19.9944 26.8742 20.3505 27.2303 20.3505 27.6697C20.3505 28.109 19.9943 28.4651 19.555 28.4651H15.8929C15.4535 28.4651 15.0975 28.109 15.0975 27.6697C15.0975 27.2303 15.4536 26.8742 15.8929 26.8742ZM7.9695 18.8951C7.9695 18.4557 8.32564 18.0996 8.76498 18.0996H13.5305C13.9699 18.0996 14.3259 18.4558 14.3259 18.8951V22.3406C14.3259 22.78 13.9698 23.1361 13.5305 23.1361H8.76498C8.32557 23.1361 7.9695 22.7799 7.9695 22.3406V18.8951ZM8.76498 26.8742H12.4271C12.8665 26.8742 13.2225 27.2303 13.2225 27.6697C13.2225 28.109 12.8664 28.4651 12.4271 28.4651H8.76498C8.32557 28.4651 7.9695 28.109 7.9695 27.6697C7.9695 27.2303 8.32572 26.8742 8.76498 26.8742ZM21.8386 32.0025H8.76498C8.32557 32.0025 7.9695 31.6464 7.9695 31.207C7.9695 30.7677 8.32564 30.4116 8.76498 30.4116H21.8386C22.278 30.4116 22.634 30.7677 22.634 31.207C22.634 31.6464 22.278 32.0025 21.8386 32.0025ZM26.683 28.4651H23.0209C22.5815 28.4651 22.2254 28.109 22.2254 27.6697C22.2254 27.2303 22.5816 26.8742 23.0209 26.8742H26.683C27.1224 26.8742 27.4785 27.2303 27.4785 27.6697C27.4785 28.109 27.1224 28.4651 26.683 28.4651ZM33.8109 28.4651H30.1489C29.7095 28.4651 29.3534 28.109 29.3534 27.6697C29.3534 27.2303 29.7095 26.8742 30.1489 26.8742H33.8109C34.2504 26.8742 34.6064 27.2303 34.6064 27.6697C34.6064 28.109 34.2502 28.4651 33.8109 28.4651ZM37.2354 16.8446H28.5982C28.1588 16.8446 27.8027 16.4885 27.8027 16.0491C27.8027 15.6098 28.1588 15.2537 28.5982 15.2537H37.2354C37.6748 15.2537 38.0309 15.6098 38.0309 16.0491C38.0309 16.4885 37.6747 16.8446 37.2354 16.8446Z" fill="#F2F2E8"/>
</svg>
