<svg width="100" height="100" viewBox="0 0 100 100" fill="none" xmlns="http://www.w3.org/2000/svg">
<g clip-path="url(#clip0_346_4876)">
<path d="M100 0H0V100H100V0Z" fill="#F2F2E8"/>
<path d="M77.669 22L66.7578 52.684L54.5278 22H47.1982L35.2458 52.684L23.8256 22H13L27.0289 59.2057C27.1735 59.1963 29.7486 57.9745 32.9079 57.6561C35.0662 57.4376 37.2431 57.4992 39.3861 57.8394C40.6945 58.0626 41.5956 58.2788 41.6558 58.2893L41.746 58.0544L50.1816 36.1066L60.8302 63.3436L60.8915 63.3648C61.2386 63.474 63.0722 64.1179 64.9046 64.7076C64.915 64.7076 67.6752 65.4737 70.3093 66L87 22H77.669Z" fill="#141410"/>
<path d="M86 65.8971C85.5467 66.8444 85.0957 67.7213 84.583 68.3312C82.9387 70.2837 80.5474 71.4877 78.0804 72.1408C65.9552 75.3597 53.5095 68.7333 42.0952 65.4508C41.6908 65.3372 41.2864 65.2236 40.8832 65.11C39.3912 64.7121 37.8655 64.446 36.3245 64.3149C28.9025 63.6743 20.9981 66.0187 16 71.3798C16.3638 70.4041 16.8326 69.4686 17.3984 68.589C17.5242 68.396 17.6548 68.2051 17.7923 68.0211C19.1946 66.0899 20.9949 64.4651 23.0782 63.2507C26.5928 61.1767 30.5526 60.2362 34.6336 60.0386C37.7462 59.8909 40.9333 60.1771 44.0564 60.7303C47.7913 61.3902 51.4341 62.434 54.7424 63.5642C55.1876 63.7152 55.6316 63.8674 56.0709 64.0185C57.9599 64.6636 59.8268 65.2929 61.7018 65.8767C64.8994 66.8774 68.1227 67.7372 71.5231 68.2983C75.6146 68.9798 80.5078 69.1388 84.2707 67.0795C84.8867 66.7436 85.4662 66.3474 86 65.8971Z" fill="#2477F1"/>
<path d="M20 71.0781C20 71.0781 30.2206 62.7813 46.0523 69.856C67.7162 79.5365 74 75.355 74 75.355C74 75.355 66.1681 82.4061 45.236 73.4831C45.2394 73.4831 33.531 67.2546 20 71.0781Z" fill="#2477F1"/>
<path d="M17 77C17 77 25.7989 65.736 39 74.075C39 74.075 26.5893 72.6224 17 77Z" fill="#2477F1"/>
</g>
<defs>
<clipPath id="clip0_346_4876">
<rect width="100" height="100" fill="white"/>
</clipPath>
</defs>
</svg>
