<svg width="33" height="33" viewBox="0 0 33 33" fill="none" xmlns="http://www.w3.org/2000/svg">
<path d="M20.663 16.243L29.8841 22.0745V10.1587L20.663 16.243ZM2.51562 10.1587V22.0745L11.7367 16.243L2.51562 10.1587ZM28.1788 6.68506H4.22089C3.37878 6.68506 2.68405 7.31664 2.55773 8.13769L16.1998 17.1272L29.8419 8.13769C29.7156 7.31664 28.9998 6.68506 28.1788 6.68506ZM19.084 17.2745L16.663 18.8745C16.5156 18.9587 16.3683 19.0219 16.1998 19.0219C16.0314 19.0219 15.863 18.9798 15.7367 18.8745L13.3156 17.2745L2.57878 24.0745C2.7051 24.8956 3.39984 25.5061 4.24194 25.5272H28.1998C29.0419 25.5272 29.7367 24.9166 29.863 24.0745L19.084 17.2745Z" fill="#BBFF2A"/>
</svg>
