<svg width="48" height="48" viewBox="0 0 48 48" fill="none" xmlns="http://www.w3.org/2000/svg">
<path fill-rule="evenodd" clip-rule="evenodd" d="M10.6035 13.5576H7.5C6.30653 13.5576 5.16193 14.0317 4.31802 14.8756C3.47411 15.7196 3 16.8641 3 18.0576V22.5576C3 23.7511 3.47411 24.8957 4.31802 25.7396C5.16193 26.5835 6.30653 27.0576 7.5 27.0576H10.6035C13.0755 31.9506 18.1485 35.3076 24 35.3076C29.8515 35.3076 34.9245 31.9506 37.3965 27.0576H40.5C40.8585 27.0576 41.2065 27.0156 41.541 26.9361C40.9516 29.1837 39.8153 31.2506 38.2335 32.9526C35.319 35.9826 31.3425 37.9986 26.901 38.3496C26.439 38.3871 25.971 38.4051 25.5 38.4051C25.1022 38.4051 24.7206 38.5632 24.4393 38.8445C24.158 39.1258 24 39.5073 24 39.9051C24 40.3029 24.158 40.6845 24.4393 40.9658C24.7206 41.2471 25.1022 41.4051 25.5 41.4051C26.052 41.4051 26.598 41.3841 27.138 41.3406C32.3385 40.9281 36.996 38.5716 40.4055 35.0211L40.422 35.0046C43.364 31.8449 44.9997 27.6879 45 23.3706C45.003 23.2781 44.9924 23.1856 44.9685 23.0961C44.9895 22.9191 45 22.7391 45 22.5576V18.0576C45 16.8641 44.5259 15.7196 43.682 14.8756C42.8381 14.0317 41.6935 13.5576 40.5 13.5576H37.3965C34.9245 8.66462 29.8515 5.30762 24 5.30762C18.1485 5.30762 13.0755 8.66462 10.6035 13.5576ZM21 38.3076H18.75C18.3522 38.3076 17.9706 38.4657 17.6893 38.747C17.408 39.0283 17.25 39.4098 17.25 39.8076C17.25 40.2054 17.408 40.587 17.6893 40.8683C17.9706 41.1496 18.3522 41.3076 18.75 41.3076H21C21.3978 41.3076 21.7794 41.1496 22.0607 40.8683C22.342 40.587 22.5 40.2054 22.5 39.8076C22.5 39.4098 22.342 39.0283 22.0607 38.747C21.7794 38.4657 21.3978 38.3076 21 38.3076ZM24 8.30762C30.6225 8.30762 36 13.6851 36 20.3076C36 26.9301 30.6225 32.3076 24 32.3076C17.3775 32.3076 12 26.9301 12 20.3076C12 13.6851 17.3775 8.30762 24 8.30762ZM17.028 26.6991C18.9495 28.3371 21.372 29.3076 24 29.3076C26.628 29.3076 29.0505 28.3371 30.972 26.6991C31.1219 26.5715 31.2452 26.4156 31.3348 26.2403C31.4245 26.065 31.4787 25.8737 31.4945 25.6775C31.5102 25.4812 31.4871 25.2838 31.4266 25.0964C31.366 24.9091 31.2691 24.7355 31.1415 24.5856C31.0139 24.4357 30.8579 24.3124 30.6826 24.2228C30.5073 24.1331 30.3161 24.0789 30.1199 24.0631C29.9236 24.0474 29.7262 24.0705 29.5388 24.131C29.3515 24.1916 29.1779 24.2885 29.028 24.4161C27.6405 25.5966 25.896 26.3076 24 26.3076C22.104 26.3076 20.3595 25.5966 18.972 24.4161C18.6693 24.1583 18.2765 24.0314 17.8801 24.0631C17.4838 24.0949 17.1163 24.2829 16.8585 24.5856C16.6007 24.8884 16.4737 25.2811 16.5055 25.6775C16.5373 26.0738 16.7253 26.4413 17.028 26.6991ZM9.474 16.5576H7.5C7.10217 16.5576 6.72064 16.7157 6.43934 16.997C6.15804 17.2783 6 17.6598 6 18.0576V22.5576C6 22.9554 6.15804 23.337 6.43934 23.6183C6.72064 23.8996 7.10217 24.0576 7.5 24.0576H9.474C9.165 22.8591 9 21.6021 9 20.3076C9 19.0131 9.165 17.7561 9.474 16.5576ZM38.526 16.5576C38.835 17.7561 39 19.0131 39 20.3076C39 21.6021 38.835 22.8591 38.526 24.0576H40.5C40.8978 24.0576 41.2794 23.8996 41.5607 23.6183C41.842 23.337 42 22.9554 42 22.5576V18.0576C42 17.6598 41.842 17.2783 41.5607 16.997C41.2794 16.7157 40.8978 16.5576 40.5 16.5576H38.526Z" fill="#F2F2E8"/>
</svg>
