<svg width="150" height="30" viewBox="0 0 150 30" fill="none" xmlns="http://www.w3.org/2000/svg">
<g clip-path="url(#clip0_0_3)">
<path d="M139.334 11.0256C139.402 11.0256 139.47 11.0666 139.498 11.135L142.41 20.6916C142.451 20.8283 142.533 20.8283 142.574 20.6916L145.486 11.135C145.513 11.0666 145.582 11.0256 145.65 11.0256H149.205C149.3 11.0256 149.341 11.0803 149.314 11.176L143.558 27.6643C142.957 29.3459 142 29.9611 140.468 29.9611H136.134C136.052 29.9611 135.998 29.9064 135.998 29.8244V27.049C135.998 26.967 136.052 26.9123 136.134 26.9123H138.869C140.851 26.9123 140.783 25.5725 140.072 23.6994L135.67 11.176C135.642 11.0803 135.683 11.0256 135.779 11.0256H139.334ZM31.2232 10.7385C35.2701 10.7385 37.608 12.8166 37.608 16.0705V21.6486C37.608 22.0314 37.786 22.2091 38.1822 22.2092H38.7428C38.8248 22.2092 38.8795 22.2639 38.8795 22.3459V24.9025C38.8795 24.9846 38.8248 25.0393 38.7428 25.0393H36.8424C35.8035 25.0392 35.065 24.7247 34.7096 24.0412C34.6685 23.9456 34.6002 23.9319 34.5318 23.9865C33.4654 24.9981 31.7427 25.3127 30.1432 25.3127C26.3973 25.3126 24.2369 23.6036 24.2369 20.801C24.2369 18.1761 26.1102 16.3577 29.6783 16.3576H33.9029C33.985 16.3576 34.0396 16.3029 34.0396 16.2209V16.0022C34.0396 14.4162 33.0553 13.5412 31.1685 13.5412C29.5555 13.5413 28.6392 14.1975 28.3658 15.3459C28.3385 15.4279 28.2974 15.469 28.2154 15.469H24.8795C24.7976 15.4688 24.7292 15.4141 24.7564 15.3186C25.1803 12.4612 27.3953 10.7386 31.2232 10.7385ZM57.4752 10.7385C61.3443 10.7385 64.1607 13.1174 64.1744 17.9162L64.1334 18.8596C64.1334 18.9553 64.0787 18.9963 63.9967 18.9963H54.0162C53.9342 18.9963 53.8658 19.051 53.8932 19.1467C54.2213 21.4025 55.6568 22.4963 57.6119 22.4963C58.856 22.4963 59.8678 21.9631 60.3873 20.8967C60.4146 20.8147 60.4693 20.7873 60.5377 20.7873H63.7916C63.8873 20.7873 63.9283 20.842 63.901 20.9377C63.1353 23.9729 60.6744 25.3127 57.5709 25.3127C53.1959 25.3127 50.3795 22.5373 50.3795 18.0393C50.3795 13.5139 53.2779 10.7385 57.4752 10.7385ZM100.879 10.7385C105.227 10.7387 108.044 13.5961 108.044 18.0119C108.044 22.4415 105.227 25.3125 100.879 25.3127C96.5182 25.3127 93.6881 22.4416 93.6881 18.0119C93.6881 13.5959 96.5182 10.7385 100.879 10.7385ZM130.002 10.7385C133.871 10.7385 136.687 13.1174 136.701 17.9162L136.66 18.8596C136.66 18.9553 136.605 18.9963 136.523 18.9963H126.543C126.461 18.9964 126.392 19.0511 126.42 19.1467C126.748 21.4025 128.183 22.4962 130.138 22.4963C131.382 22.4963 132.394 21.963 132.914 20.8967C132.941 20.8147 132.996 20.7874 133.064 20.7873H136.318C136.414 20.7873 136.455 20.842 136.427 20.9377C135.662 23.9728 133.201 25.3127 130.097 25.3127C125.722 25.3126 122.906 22.5372 122.906 18.0393C122.906 13.5139 125.804 10.7386 130.002 10.7385ZM3.72128 5.4338C3.80329 5.4338 3.85798 5.47487 3.87167 5.55685L6.44198 20.2268C6.46932 20.3498 6.57867 20.3497 6.60605 20.2268L10.0514 5.55685C10.065 5.48862 10.12 5.43401 10.2017 5.4338H13.6197C13.7017 5.4338 13.7564 5.48853 13.7701 5.55685L17.2017 20.1721C17.2291 20.2951 17.3384 20.295 17.3658 20.1721L19.9498 5.55685C19.9634 5.47497 20.0184 5.43396 20.1002 5.4338H23.6959C23.7916 5.4338 23.8326 5.50216 23.8189 5.58419L20.1412 24.9162C20.1275 24.9982 20.0728 25.0393 19.9908 25.0393H15.0416C14.9598 25.0391 14.9048 24.9981 14.8912 24.9162L11.9791 11.8869C11.9517 11.764 11.8424 11.7639 11.815 11.8869L8.93027 24.9162C8.91657 24.9982 8.86188 25.0393 8.77987 25.0393H3.83066C3.74889 25.0391 3.69391 24.9981 3.68027 24.9162L0.00253122 5.58419C-0.0110801 5.50233 0.0302414 5.43402 0.125578 5.4338H3.72128ZM41.2525 11.0256C41.3209 11.0256 41.3892 11.0666 41.4166 11.135L44.4107 20.9377C44.4517 21.0744 44.5338 21.0744 44.5748 20.9377L47.5689 11.135C47.5963 11.0667 47.6647 11.0257 47.733 11.0256H51.3014C51.3971 11.0256 51.4381 11.0803 51.4107 11.176L46.5982 24.9299C46.5709 25.0119 46.5025 25.0393 46.4342 25.0393H42.5514C42.4831 25.0392 42.4146 24.9982 42.3873 24.9299L37.5885 11.176C37.5612 11.0804 37.6023 11.0257 37.6978 11.0256H41.2525ZM77.356 5.4338C77.4243 5.43388 77.4928 5.46127 77.5201 5.54317L81.9635 18.1213C82.0045 18.2306 82.1139 18.2306 82.1549 18.1213L86.6256 5.54317C86.6529 5.46122 86.7213 5.4338 86.7896 5.4338H92.1764C92.2582 5.43394 92.3131 5.48859 92.3131 5.57052V24.9025C92.3131 24.9845 92.2582 25.0391 92.1764 25.0393H88.7037C88.6217 25.0393 88.567 24.9846 88.567 24.9025V10.26C88.567 10.137 88.4576 10.1097 88.4166 10.2326L83.1393 24.9299C83.1119 25.0118 83.0434 25.0392 82.9752 25.0393H81.1568C81.0885 25.0393 81.0201 25.0119 80.9928 24.9299L75.7291 10.2326C75.6881 10.1096 75.5787 10.1369 75.5787 10.26V24.9025C75.5787 24.9845 75.5238 25.0391 75.442 25.0393H71.9693C71.8873 25.0393 71.8326 24.9846 71.8326 24.9025V5.57052C71.8326 5.48849 71.8873 5.4338 71.9693 5.4338H77.356ZM116.459 10.7385C119.972 10.7385 122.091 12.5705 122.091 16.0705V24.9025C122.091 24.9846 122.037 25.0393 121.955 25.0393H118.66C118.578 25.0391 118.523 24.9845 118.523 24.9025V16.7268C118.523 14.799 117.416 13.719 115.474 13.719C113.547 13.7191 112.425 14.9085 112.425 16.8908V24.9025C112.425 24.9846 112.371 25.0393 112.289 25.0393H108.966C108.885 25.0391 108.83 24.9845 108.83 24.9025V11.1623C108.83 11.0804 108.885 11.0258 108.966 11.0256H111.728C111.796 11.0256 111.865 11.0667 111.892 11.135L112.22 12.0783C112.248 12.174 112.33 12.2012 112.398 12.133C113.546 11.1624 114.927 10.7386 116.459 10.7385ZM30.1432 18.9963C28.5164 18.9964 27.8189 19.5843 27.8189 20.6643C27.8189 21.8673 28.7352 22.5919 30.5943 22.592C32.6725 22.592 34.0943 21.6486 34.0943 19.4065V19.133C34.0943 19.051 34.0396 18.9963 33.9576 18.9963H30.1432ZM100.879 13.719C98.6783 13.719 97.2564 15.4006 97.2564 18.0119C97.2564 20.6506 98.6783 22.3459 100.879 22.3459C103.067 22.3457 104.475 20.6504 104.475 18.0119C104.475 15.4008 103.067 13.7192 100.879 13.719ZM57.5299 13.5412C55.6705 13.5412 54.4674 14.5119 54.0162 16.2072C53.9889 16.3029 54.0299 16.3576 54.1256 16.3576H60.5514C60.6334 16.3576 60.6881 16.3029 60.6744 16.2072C60.3736 14.4299 59.1705 13.5412 57.5299 13.5412ZM130.056 13.5412C128.197 13.5413 126.994 14.512 126.543 16.2072C126.515 16.3028 126.556 16.3576 126.652 16.3576H133.078C133.16 16.3576 133.214 16.3029 133.201 16.2072C132.9 14.4299 131.697 13.5412 130.056 13.5412Z" fill="#FAF8E7"/>
<path d="M27.5157 5.89603C27.5157 5.89603 33.0761 1.2363 41.6925 5.20853C53.4699 10.6299 56.8866 8.30161 56.8956 8.29545C56.8956 8.29545 52.635 12.2549 41.2462 7.24564C41.1925 7.21627 34.8449 3.75808 27.5157 5.89603ZM25.8058 9.18705C25.8058 9.18705 30.6933 3.47326 38.0275 7.70365C38.0275 7.70365 31.1333 6.96881 25.8058 9.18705ZM35.5372 0.0571668C37.2435 -0.0108049 38.952 0.114428 40.63 0.43119C42.5938 0.803052 44.526 1.32965 46.4073 2.00443L47.1261 2.25639C48.1463 2.61392 49.1574 2.9628 50.17 3.28666C51.9052 3.86255 53.6804 4.31156 55.4806 4.63041C57.6913 5.00471 60.3366 5.09641 62.3712 3.95463C62.7057 3.77077 63.0206 3.55316 63.3107 3.30521C63.1103 3.7846 62.8532 4.23838 62.545 4.65678C61.6577 5.73873 60.3641 6.40688 59.0294 6.7681C52.4777 8.55394 45.7387 4.87583 39.5763 3.05814C39.3573 2.99453 39.14 2.93058 38.921 2.87064C38.115 2.65005 37.2907 2.50322 36.4581 2.43119C32.4447 2.07555 28.171 3.36729 25.4698 6.35111C25.6644 5.81026 25.9147 5.29055 26.2179 4.80228C26.2853 4.6937 26.3568 4.5887 26.4298 4.48392C27.1894 3.41298 28.1636 2.51184 29.2902 1.83744C31.1902 0.68811 33.3302 0.165758 35.5372 0.0571668Z" fill="#BBFF2A"/>
</g>
<defs>
<clipPath id="clip0_0_3">
<rect width="150" height="30" fill="white"/>
</clipPath>
</defs>
</svg>
