<svg width="175" height="36" viewBox="0 0 175 36" fill="none" xmlns="http://www.w3.org/2000/svg">
<path d="M162.981 13.1553C163.061 13.1553 163.141 13.2034 163.173 13.2832L166.58 24.4619C166.628 24.6218 166.724 24.6218 166.771 24.4619L170.178 13.2832C170.21 13.2032 170.29 13.1553 170.37 13.1553H174.528C174.64 13.1554 174.688 13.2194 174.656 13.3311L167.923 32.6182C167.219 34.5851 166.1 35.3047 164.309 35.3047H159.239C159.143 35.3047 159.079 35.2405 159.079 35.1445V31.8984C159.079 31.8025 159.143 31.7383 159.239 31.7383H162.438C164.756 31.7383 164.676 30.1714 163.845 27.9805L158.695 13.3311C158.663 13.2193 158.712 13.1553 158.823 13.1553H162.981ZM36.5225 12.8193C41.2561 12.8194 43.9912 15.2505 43.9912 19.0566V25.5811C43.9912 26.0287 44.1986 26.2372 44.6621 26.2373H45.3184C45.4142 26.2374 45.4785 26.3016 45.4785 26.3975V29.3877C45.4785 29.4835 45.4142 29.5477 45.3184 29.5479H43.0947C41.8796 29.5478 41.0163 29.1794 40.6006 28.3799C40.5526 28.268 40.4725 28.2525 40.3926 28.3164C39.1452 29.4998 37.1299 29.8672 35.2588 29.8672C30.877 29.8671 28.3506 27.8682 28.3506 24.5898C28.3506 21.5194 30.5411 19.3927 34.7149 19.3926H39.6572C39.753 19.3924 39.8164 19.3282 39.8164 19.2324V18.9766C39.8164 17.1215 38.665 16.0977 36.458 16.0977C34.5711 16.0978 33.4995 16.8657 33.1797 18.209C33.1477 18.3049 33.0998 18.3525 33.0039 18.3525H29.1016C29.0058 18.3524 28.9261 18.2886 28.958 18.1768C29.4539 14.8345 32.0447 12.8193 36.5225 12.8193ZM67.2295 12.8193C71.7553 12.8193 75.0495 15.6025 75.0654 21.2158L75.0176 22.3193C75.0175 22.431 74.9533 22.4785 74.8574 22.4785H63.1836C63.0877 22.4785 63.0071 22.5433 63.0391 22.6553C63.423 25.2938 65.1029 26.5732 67.3897 26.5732C68.8448 26.5732 70.028 25.9493 70.6358 24.7021C70.6677 24.6063 70.7317 24.5743 70.8115 24.5742H74.6182C74.73 24.5743 74.7781 24.6381 74.7461 24.75C73.8505 28.3001 70.9719 29.8671 67.3418 29.8672C62.2243 29.8672 58.9297 26.6209 58.9297 21.3594C58.9297 16.066 62.3199 12.8194 67.2295 12.8193ZM118 12.8193C123.085 12.8193 126.38 16.1618 126.38 21.3271C126.38 26.5087 123.086 29.8672 118 29.8672C112.899 29.8671 109.588 26.5086 109.588 21.3271C109.588 16.1618 112.899 12.8194 118 12.8193ZM152.065 12.8193C156.591 12.8193 159.886 15.6025 159.902 21.2158L159.854 22.3193C159.853 22.4309 159.79 22.4784 159.694 22.4785H148.02C147.924 22.4786 147.844 22.5434 147.876 22.6553C148.26 25.2937 149.939 26.5732 152.226 26.5732C153.681 26.5732 154.864 25.9493 155.472 24.7021C155.504 24.6062 155.568 24.5742 155.648 24.5742H159.454C159.566 24.5742 159.614 24.6381 159.582 24.75C158.686 28.3001 155.808 29.8672 152.178 29.8672C147.06 29.8672 143.766 26.6209 143.766 21.3594C143.766 16.066 147.156 12.8195 152.065 12.8193ZM4.35256 6.61426C4.44851 6.61426 4.51234 6.66284 4.52834 6.75879L7.53517 23.918C7.56716 24.0619 7.69557 24.0619 7.72756 23.918L11.7569 6.75879C11.7728 6.67883 11.8377 6.61426 11.9336 6.61426H15.9317C16.0274 6.61444 16.0915 6.67894 16.1074 6.75879L20.1211 23.8545C20.1532 23.9982 20.2815 23.9982 20.3135 23.8545L23.336 6.75879C23.3519 6.66284 23.4158 6.61426 23.5117 6.61426H27.7178C27.8295 6.61435 27.8772 6.69429 27.8613 6.79004L23.5596 29.4033C23.5436 29.4992 23.4797 29.5478 23.3838 29.5479H17.5947C17.4988 29.5479 17.435 29.4993 17.419 29.4033L14.0117 14.1631C13.9797 14.0192 13.8523 14.0192 13.8203 14.1631L10.4463 29.4033C10.4303 29.4993 10.3655 29.5479 10.2695 29.5479H4.48048C4.38467 29.5478 4.32068 29.4992 4.3047 29.4033L0.00294571 6.79004C-0.0128564 6.69433 0.034908 6.6144 0.1465 6.61426H4.35256ZM48.2539 13.1553C48.3337 13.1554 48.4133 13.2034 48.4453 13.2832L51.9483 24.75C51.9962 24.9096 52.0917 24.9096 52.1397 24.75L55.6426 13.2832C55.6746 13.2034 55.7541 13.1553 55.834 13.1553H60.0078C60.1197 13.1553 60.1677 13.2192 60.1358 13.3311L54.5069 29.4199C54.4748 29.5157 54.3944 29.5479 54.3145 29.5479H49.7725C49.6928 29.5477 49.6131 29.4995 49.5811 29.4199L43.9678 13.3311C43.9359 13.2192 43.9838 13.1553 44.0957 13.1553H48.2539ZM90.4844 6.61426C90.5642 6.61427 90.6437 6.64653 90.6758 6.74219L95.874 21.4551C95.922 21.583 96.0497 21.583 96.0977 21.4551L101.327 6.74219C101.359 6.6466 101.439 6.61438 101.519 6.61426H107.82C107.916 6.61439 107.98 6.67856 107.98 6.77441V29.3877C107.979 29.4835 107.916 29.5477 107.82 29.5479H103.758C103.662 29.5478 103.598 29.4835 103.598 29.3877V12.2598C103.598 12.1159 103.47 12.0838 103.422 12.2275L97.249 29.4199C97.217 29.5154 97.1374 29.5477 97.0576 29.5479H94.9307C94.8508 29.5479 94.7704 29.5156 94.7383 29.4199L88.5811 12.2275C88.533 12.084 88.4053 12.116 88.4053 12.2598V29.3877C88.4052 29.4836 88.341 29.5479 88.2451 29.5479H84.1836C84.0877 29.5479 84.0235 29.4836 84.0235 29.3877V6.77441C84.0235 6.67846 84.0877 6.61426 84.1836 6.61426H90.4844ZM136.225 12.8193C140.334 12.8194 142.813 14.9627 142.813 19.0566V29.3877C142.813 29.4836 142.749 29.5478 142.653 29.5479H138.799C138.703 29.5477 138.64 29.4835 138.64 29.3877V19.8242C138.64 17.5694 137.344 16.3058 135.073 16.3057C132.818 16.3057 131.507 17.697 131.507 20.0156V29.3877C131.507 29.4836 131.443 29.5478 131.347 29.5479H127.461C127.365 29.5479 127.301 29.4836 127.301 29.3877V13.3154C127.301 13.2195 127.365 13.1553 127.461 13.1553H130.691C130.771 13.1554 130.851 13.2035 130.883 13.2832L131.267 14.3867C131.299 14.4986 131.395 14.5309 131.475 14.4512C132.818 13.3157 134.433 12.8193 136.225 12.8193ZM35.2588 22.4785C33.356 22.4785 32.5402 23.1665 32.5401 24.4297C32.5401 25.837 33.6122 26.6846 35.7871 26.6846C38.2176 26.6844 39.8807 25.5813 39.8809 22.959V22.6387C39.8808 22.5428 39.8166 22.4785 39.7207 22.4785H35.2588ZM118 16.3057C115.425 16.3057 113.762 18.2728 113.762 21.3271C113.762 24.4136 115.425 26.3974 118 26.3975C120.559 26.3975 122.206 24.4137 122.206 21.3271C122.206 18.2728 120.559 16.3057 118 16.3057ZM67.294 16.0977C65.119 16.0977 63.7114 17.2337 63.1836 19.2168C63.1518 19.3286 63.1997 19.3926 63.3115 19.3926H70.8281C70.9238 19.3924 70.9875 19.3284 70.9717 19.2168C70.6199 17.138 69.2128 16.0978 67.294 16.0977ZM152.13 16.0977C149.955 16.0977 148.547 17.2337 148.02 19.2168C147.988 19.3285 148.036 19.3925 148.147 19.3926H155.664C155.76 19.3925 155.823 19.3285 155.808 19.2168C155.456 17.1379 154.049 16.0977 152.13 16.0977Z" fill="#F2F2E8"/>
<path d="M32.1855 7.73773C32.1855 7.73773 38.6888 2.2877 48.7676 6.93402C62.5622 13.2839 66.5518 10.5444 66.5518 10.5444C66.5518 10.5444 61.5678 15.1763 48.2461 9.31683C48.2046 9.29411 40.7711 5.23327 32.1855 7.73773ZM30.1846 11.5864C30.2129 11.5534 35.9228 4.91686 44.4805 9.85297C44.4168 9.84622 36.3915 9.00195 30.1846 11.5864ZM41.5674 0.907653C43.5635 0.828094 45.5624 0.975528 47.5254 1.34613C49.8225 1.78111 52.0825 2.39568 54.2832 3.185L55.124 3.4809C56.3171 3.89904 57.4992 4.30623 58.6836 4.685C60.7134 5.3587 62.7896 5.88427 64.8955 6.25726C67.4814 6.69515 70.576 6.80282 72.9561 5.46722C73.3475 5.25212 73.7152 4.99662 74.0547 4.70648C73.8203 5.26724 73.5197 5.79812 73.1592 6.28754C72.1214 7.553 70.6089 8.3347 69.0479 8.75726C61.3842 10.8462 53.5012 6.54362 46.293 4.41742C46.0368 4.343 45.7826 4.26878 45.5264 4.19867C44.5833 3.94057 43.6186 3.76826 42.6445 3.68402C37.9502 3.26813 32.9516 4.77911 29.792 8.26898C30.0195 7.63652 30.3134 7.02942 30.668 6.45843C30.7467 6.33154 30.8297 6.20882 30.915 6.08636C31.8035 4.8336 32.943 3.77956 34.2607 2.99066C36.4832 1.64629 38.9858 1.03469 41.5674 0.907653Z" fill="#BBFF2A"/>
</svg>
