<svg width="46" height="47" viewBox="0 0 46 47" fill="none" xmlns="http://www.w3.org/2000/svg">
<path d="M31.9641 28.6612C30.8388 27.5503 29.434 27.5503 28.3159 28.6612C27.463 29.507 26.6101 30.3527 25.7715 31.2128C25.5422 31.4493 25.3486 31.4995 25.0691 31.3418C24.5172 31.0408 23.9295 30.7971 23.3991 30.4674C20.9264 28.9121 18.855 26.9124 17.0202 24.6618C16.1099 23.5437 15.3 22.3468 14.7338 20.9993C14.6191 20.727 14.6406 20.5478 14.8628 20.3256C15.7157 19.5013 16.5471 18.6556 17.3857 17.8099C18.554 16.6344 18.554 15.2583 17.3785 14.0757C16.712 13.4019 16.0454 12.7425 15.3789 12.0688C14.6908 11.3807 14.0099 10.6855 13.3147 10.0046C12.1894 8.90801 10.7846 8.90801 9.66648 10.0118C8.8064 10.8575 7.98216 11.7248 7.10774 12.5562C6.29783 13.3231 5.88929 14.262 5.80328 15.3586C5.6671 17.1433 6.10431 18.8276 6.7207 20.4689C7.98216 23.8663 9.903 26.8837 12.2324 29.6503C15.3789 33.3917 19.1345 36.3518 23.5281 38.4876C25.5063 39.4481 27.5562 40.1863 29.7852 40.3082C31.319 40.3942 32.6522 40.0071 33.7201 38.8102C34.4512 37.9931 35.2754 37.2477 36.0495 36.4665C37.1963 35.3053 37.2034 33.9005 36.0638 32.7538C34.702 31.3848 33.3331 30.023 31.9641 28.6612ZM30.5951 22.9488L33.2399 22.4973C32.8242 20.0676 31.6774 17.8672 29.9357 16.1184C28.0937 14.2764 25.7643 13.1152 23.1984 12.7569L22.8257 15.416C24.8111 15.6955 26.6173 16.5914 28.0436 18.0177C29.391 19.3652 30.2726 21.071 30.5951 22.9488ZM34.7307 11.4524C31.6774 8.39913 27.8142 6.47111 23.5496 5.87622L23.1769 8.53531C26.8609 9.05136 30.2009 10.7213 32.8385 13.3518C35.3399 15.8532 36.9812 19.014 37.5761 22.4901L40.2209 22.0386C39.5257 18.0105 37.6263 14.3552 34.7307 11.4524Z" fill="#F2F2E8"/>
</svg>
