<svg xmlns="http://www.w3.org/2000/svg" width="215" height="231" viewBox="0 0 215 231" fill="none">
  <path d="M107.477 2.16016C109.126 2.16016 110.709 2.81505 111.875 3.98145C113.041 5.14786 113.696 6.73031 113.696 8.37988V222.095C113.696 223.744 113.041 225.327 111.875 226.493C110.709 227.66 109.126 228.314 107.477 228.314C105.827 228.314 104.245 227.66 103.078 226.493C101.912 225.327 101.257 223.744 101.257 222.095V8.37988C101.257 6.73032 101.912 5.14787 103.078 3.98145C104.245 2.81503 105.827 2.16017 107.477 2.16016ZM41.7178 35.0391C43.3674 35.0391 44.9498 35.6949 46.1162 36.8613C47.2825 38.0277 47.9374 39.6094 47.9375 41.2588V197.436C47.9375 199.085 47.2826 200.668 46.1162 201.834C44.9498 203 43.3673 203.655 41.7178 203.655C40.0685 203.655 38.4866 203 37.3203 201.834C36.1539 200.668 35.4981 199.085 35.498 197.436V41.2588C35.4982 39.6093 36.154 38.0277 37.3203 36.8613C38.4867 35.695 40.0683 35.0392 41.7178 35.0391ZM173.235 35.0391C174.885 35.0391 176.466 35.695 177.633 36.8613C178.799 38.0277 179.455 39.6093 179.455 41.2588V197.436C179.455 199.085 178.799 200.668 177.633 201.834C176.466 203 174.885 203.655 173.235 203.655C171.586 203.655 170.003 203 168.837 201.834C167.67 200.668 167.016 199.085 167.016 197.436V41.2588C167.016 39.6094 167.671 38.0277 168.837 36.8613C170.003 35.6949 171.586 35.0391 173.235 35.0391ZM74.5977 59.6992C76.2471 59.6993 77.8288 60.3542 78.9951 61.5205C80.1616 62.6869 80.8174 64.2694 80.8174 65.9189V172.776C80.8173 174.426 80.1615 176.007 78.9951 177.174C77.8287 178.34 76.2472 178.996 74.5977 178.996C72.9481 178.996 71.3657 178.34 70.1992 177.174C69.033 176.007 68.378 174.426 68.3779 172.776V65.9189C68.3779 64.2694 69.0328 62.6869 70.1992 61.5205C71.3657 60.3541 72.9481 59.6992 74.5977 59.6992ZM140.355 59.6992C141.902 59.6992 143.389 60.2746 144.53 61.3076L144.754 61.5205C145.92 62.6869 146.575 64.2693 146.575 65.9189V172.776C146.575 174.323 146 175.809 144.967 176.95L144.754 177.174C143.587 178.34 142.005 178.996 140.355 178.996C138.706 178.996 137.124 178.34 135.958 177.174C134.792 176.007 134.136 174.426 134.136 172.776V65.9189C134.136 64.2694 134.792 62.6869 135.958 61.5205C137.124 60.3542 138.706 59.6993 140.355 59.6992ZM8.83887 84.3584C10.4885 84.3584 12.0709 85.0132 13.2373 86.1797C14.4037 87.3461 15.0586 88.9285 15.0586 90.5781V148.116C15.0586 149.766 14.4036 151.348 13.2373 152.515C12.0709 153.681 10.4885 154.337 8.83887 154.337C7.1893 154.337 5.60685 153.681 4.44043 152.515C3.27416 151.348 2.61914 149.766 2.61914 148.116V90.5781C2.61914 88.9286 3.27405 87.3461 4.44043 86.1797C5.60685 85.0133 7.1893 84.3584 8.83887 84.3584ZM206.114 84.3584C207.764 84.3584 209.346 85.0132 210.513 86.1797C211.679 87.3461 212.334 88.9285 212.334 90.5781V148.116C212.334 149.766 211.679 151.348 210.513 152.515C209.346 153.681 207.764 154.337 206.114 154.337C204.465 154.337 202.882 153.681 201.716 152.515C200.55 151.348 199.895 149.766 199.895 148.116V90.5781C199.895 88.9286 200.549 87.3461 201.716 86.1797C202.882 85.0133 204.465 84.3584 206.114 84.3584Z" fill="#1A1A19" stroke="#F9F8E7" stroke-width="4"/>
</svg>