<svg width="46" height="47" viewBox="0 0 46 47" fill="none" xmlns="http://www.w3.org/2000/svg">
<path d="M42.1667 16.3897C42.1667 22.6381 37.5667 27.7939 31.5867 28.6947V28.5797C30.9925 21.1431 24.955 15.1056 17.4608 14.5114H17.4033C17.8503 11.5678 19.3374 8.8819 21.5949 6.94082C23.8525 4.99973 26.731 3.93204 29.7083 3.9314C31.3444 3.9314 32.9644 4.25364 34.4759 4.87973C35.9874 5.50582 37.3608 6.42349 38.5177 7.58036C39.6746 8.73722 40.5922 10.1106 41.2183 11.6221C41.8444 13.1336 42.1667 14.7537 42.1667 16.3897Z" fill="#F2F2E8"/>
<path d="M28.7117 28.8096C28.4573 25.6892 27.0389 22.7785 24.7382 20.6553C22.4374 18.5321 19.4224 17.3515 16.2917 17.3479C13.7852 17.3482 11.3372 18.1046 9.26732 19.5181C7.19747 20.9316 5.60213 22.9366 4.68972 25.2711C3.77732 27.6056 3.59029 30.1611 4.15306 32.6035C4.71584 35.046 6.00226 37.2619 7.84423 38.9617C9.68621 40.6616 11.9981 41.7663 14.4778 42.1316C16.9575 42.4968 19.4897 42.1056 21.7436 41.0091C23.9975 39.9126 25.8682 38.1617 27.1113 35.9853C28.3545 33.8088 28.9122 31.308 28.7117 28.8096ZM17.9784 31.4929L16.2917 34.5979L14.605 31.4929L11.5 29.8062L14.605 28.1196L16.2917 25.0146L17.9784 28.1196L21.0834 29.8062L17.9784 31.4929Z" fill="#F2F2E8"/>
</svg>
