<svg width="38" height="38" viewBox="0 0 38 38" fill="none" xmlns="http://www.w3.org/2000/svg">
<g clip-path="url(#clip0_32_7346)">
<path d="M37.5807 7.6898L37.5747 7.6334C37.3823 5.78621 36.5602 4.06147 35.2464 2.74879C33.9327 1.43611 32.2073 0.615419 30.3599 0.424531C27.6517 0.1425 23.1889 0 19 0C14.8111 0 10.3483 0.1425 7.64008 0.424531C5.79274 0.615419 4.06732 1.43611 2.75356 2.74879C1.43979 4.06147 0.617682 5.78621 0.425273 7.6334L0.419336 7.6898C0.184805 9.93566 0 10.2964 0 15.033C0 19.7696 0.184805 20.5341 0.419336 22.7807L0.425273 22.8364C0.617682 24.6836 1.43979 26.4083 2.75356 27.721C4.06732 29.0337 5.79274 29.8543 7.64008 30.0452C9.1341 30.2011 11.1625 30.3139 13.3839 30.3844L17.6945 37.2296C17.8432 37.4656 18.0493 37.66 18.2935 37.7947C18.5377 37.9295 18.812 38.0001 19.0909 38.0001C19.3698 38.0001 19.6442 37.9295 19.8884 37.7947C20.1326 37.66 20.3386 37.4656 20.4873 37.2296L24.8017 30.3785C26.9503 30.3043 28.9075 30.1966 30.3592 30.0452C32.2067 29.8545 33.9322 29.0339 35.2462 27.7212C36.5601 26.4085 37.3823 24.6837 37.5747 22.8364L37.5807 22.78C37.8152 20.5341 38 19.7696 38 15.033C38 10.2964 37.8152 9.93641 37.5807 7.6898ZM18.9955 26.5005C18.4975 26.4997 18.0109 26.3512 17.5973 26.0739C17.1836 25.7965 16.8615 25.4028 16.6715 24.9425C16.4815 24.4821 16.4323 23.9758 16.53 23.4874C16.6277 22.9991 16.8679 22.5506 17.2204 22.1988C17.5728 21.847 18.0217 21.6075 18.5102 21.5107C18.9987 21.4138 19.505 21.464 19.965 21.6548C20.425 21.8455 20.8182 22.1684 21.0948 22.5826C21.3714 22.9967 21.519 23.4835 21.519 23.9816C21.5178 24.65 21.2514 25.2908 20.7783 25.763C20.3052 26.2353 19.664 26.5005 18.9955 26.5005ZM21.4388 17.8251C21.3967 18.2146 21.2207 18.5774 20.9408 18.8516C20.6575 19.128 20.2889 19.3004 19.8951 19.3407H19.8832C19.6368 19.3692 19.389 19.3836 19.141 19.3837C18.8436 19.3851 18.5463 19.3708 18.2504 19.3407H18.2378C17.8431 19.3011 17.4736 19.1286 17.1898 18.8516C16.9098 18.5778 16.7338 18.2152 16.6918 17.8259C16.6309 17.2573 16.6005 13.3096 16.6005 12.4302C16.6005 11.5507 16.6309 7.59184 16.6918 7.02406C16.7339 6.63456 16.9099 6.27177 17.1898 5.99762C17.4729 5.72137 17.8413 5.54922 18.2348 5.50926H18.2474C18.5433 5.47977 18.8409 5.47084 19.138 5.48254C19.3858 5.47079 19.634 5.47973 19.8802 5.50926H19.8921C20.2859 5.54917 20.6545 5.72131 20.9379 5.99762C21.2175 6.27195 21.3934 6.63465 21.4359 7.02406C21.496 7.59184 21.5271 11.5514 21.5271 12.4302C21.5271 13.3089 21.4989 17.2566 21.4388 17.8251Z" fill="#F2F2E8"/>
</g>
<defs>
<clipPath id="clip0_32_7346">
<rect width="38" height="38" fill="white"/>
</clipPath>
</defs>
</svg>
