<svg width="46" height="47" viewBox="0 0 46 47" fill="none" xmlns="http://www.w3.org/2000/svg">
<path fill-rule="evenodd" clip-rule="evenodd" d="M20.8239 13.0992C16.9952 17.5204 11.8644 20.98 7.57314 22.9284C7.23446 23.0758 6.92872 23.2896 6.67391 23.557C6.4191 23.8245 6.22037 24.1402 6.08944 24.4856C5.95851 24.831 5.89801 25.1991 5.91152 25.5683C5.92502 25.9374 6.01225 26.3001 6.16808 26.6351C6.81913 28.0417 7.79966 30.1454 8.45705 31.5552C8.61472 31.8911 8.83812 32.1936 9.11404 32.4417C9.38997 32.6898 9.71283 32.8801 10.0635 33.0013C10.4143 33.1226 10.7857 33.1723 11.156 33.1476C11.5262 33.1228 11.8877 33.0241 12.2192 32.8573C16.4582 30.8043 22.4127 29.1363 28.2579 29.0397L20.8239 13.0992ZM22.4744 11.0146L30.9128 29.1094C31.3896 29.1426 31.8632 29.1886 32.3337 29.2472C32.8267 29.3246 33.3314 29.2671 33.7944 29.0808C34.2574 28.8945 34.6613 28.5864 34.9632 28.189C35.2651 27.7896 35.4524 27.3155 35.5052 26.8176C35.5579 26.3197 35.4741 25.8169 35.2626 25.3631C32.9039 20.2698 30.5373 15.1802 28.1628 10.0943C27.9509 9.63903 27.6191 9.24998 27.2032 8.96869C26.7872 8.68741 26.3026 8.52447 25.8011 8.4973C25.2997 8.47013 24.8003 8.57975 24.3564 8.81444C23.9125 9.04913 23.5407 9.40006 23.2807 9.82971C23.0241 10.2305 22.7548 10.6265 22.4744 11.0146ZM34.7335 17.6249L37.6039 16.2864C37.8895 16.1532 38.1106 15.912 38.2185 15.6158C38.3263 15.3196 38.312 14.9927 38.1789 14.7071C38.0457 14.4214 37.8045 14.2003 37.5083 14.0925C37.2121 13.9846 36.8852 13.9989 36.5996 14.132L33.7292 15.4706C33.4436 15.6037 33.2225 15.845 33.1146 16.1411C33.0068 16.4373 33.021 16.7642 33.1542 17.0499C33.2874 17.3356 33.5286 17.5566 33.8248 17.6645C34.121 17.7723 34.4478 17.7581 34.7335 17.6249ZM35.4495 23.0234L38.426 24.1069C38.7206 24.2093 39.0438 24.1917 39.3256 24.058C39.6074 23.9242 39.8253 23.6849 39.9322 23.3919C40.0391 23.0988 40.0264 22.7755 39.897 22.4916C39.7675 22.2078 39.5316 21.9863 39.2402 21.8749L36.2622 20.7914C36.1146 20.7333 35.9568 20.7053 35.7982 20.709C35.6396 20.7128 35.4834 20.7483 35.3387 20.8135C35.1941 20.8786 35.0639 20.9721 34.956 21.0883C34.848 21.2045 34.7645 21.3412 34.7102 21.4903C34.6559 21.6394 34.632 21.7978 34.64 21.9562C34.6479 22.1147 34.6875 22.2699 34.7564 22.4128C34.8253 22.5557 34.9222 22.6834 35.0412 22.7882C35.1603 22.8931 35.2991 22.9731 35.4495 23.0234ZM32.2861 12.2644L33.3696 9.28796C33.4679 8.99428 33.4476 8.67383 33.3131 8.39488C33.1786 8.11593 32.9405 7.90054 32.6495 7.79459C32.3585 7.68864 32.0376 7.70051 31.7552 7.82766C31.4728 7.95482 31.2513 8.18721 31.1377 8.47534L30.0542 11.4518C29.996 11.5994 29.968 11.7571 29.9718 11.9157C29.9756 12.0743 30.0111 12.2306 30.0762 12.3752C30.1414 12.5199 30.2348 12.65 30.3511 12.758C30.4673 12.8659 30.604 12.9495 30.7531 13.0038C30.9021 13.058 31.0606 13.0819 31.219 13.074C31.3774 13.066 31.5327 13.0264 31.6756 12.9575C31.8185 12.8886 31.9461 12.7918 32.051 12.6727C32.1558 12.5537 32.2358 12.4149 32.2861 12.2644ZM22.297 31.2479C20.1877 31.6461 18.1138 32.2134 16.0954 32.9444L17.944 36.9077C18.2549 37.5741 18.8176 38.0897 19.5085 38.3413C20.1995 38.5929 20.962 38.5598 21.6286 38.2494L22.3461 37.9136C22.676 37.7599 22.9724 37.5426 23.2183 37.2743C23.4642 37.006 23.6548 36.6918 23.7793 36.3498C23.9037 36.0078 23.9596 35.6446 23.9436 35.281C23.9276 34.9174 23.8402 34.5605 23.6863 34.2307L22.297 31.2479Z" fill="#F2F2E8"/>
</svg>
