<svg width="102" height="19" viewBox="0 0 102 19" fill="none" xmlns="http://www.w3.org/2000/svg">
<path d="M9 0.439514L11.0206 6.65836H17.5595L12.2694 10.5018L14.2901 16.7207L9 12.8772L3.70993 16.7207L5.73056 10.5018L0.440492 6.65836H6.97937L9 0.439514Z" fill="#1A1A19"/>
<path d="M30 0.439514L32.0206 6.65836H38.5595L33.2694 10.5018L35.2901 16.7207L30 12.8772L24.7099 16.7207L26.7306 10.5018L21.4405 6.65836H27.9794L30 0.439514Z" fill="#1A1A19"/>
<path d="M51 0.439514L53.0206 6.65836H59.5595L54.2694 10.5018L56.2901 16.7207L51 12.8772L45.7099 16.7207L47.7306 10.5018L42.4405 6.65836H48.9794L51 0.439514Z" fill="#1A1A19"/>
<path d="M72 0.439514L74.0206 6.65836H80.5595L75.2694 10.5018L77.2901 16.7207L72 12.8772L66.7099 16.7207L68.7306 10.5018L63.4405 6.65836H69.9794L72 0.439514Z" fill="#1A1A19"/>
<path d="M93 0.439514L95.0206 6.65836H101.56L96.2694 10.5018L98.2901 16.7207L93 12.8772L87.7099 16.7207L89.7306 10.5018L84.4405 6.65836H90.9794L93 0.439514Z" fill="#1A1A19"/>
</svg>
