<svg width="46" height="47" viewBox="0 0 46 47" fill="none" xmlns="http://www.w3.org/2000/svg">
<path d="M6.85205 26.8215C6.85205 17.5899 14.3357 10.1062 23.5673 10.1062H27.0368V7.89821C27.0368 7.07902 28.0071 6.64694 28.6159 7.19496L34.9236 12.8719C35.3413 13.2478 35.3413 13.9026 34.9236 14.2785L28.6159 19.9555C28.0071 20.5035 27.0368 20.0713 27.0368 19.2522V17.0447H23.81C17.1765 17.0447 11.1988 21.048 8.67309 27.1817C8.27848 28.1401 6.85205 27.8579 6.85205 26.8215ZM39.1477 19.3746C39.1477 28.6061 31.664 36.0898 22.4324 36.0898H18.9629V38.2978C18.9629 39.117 17.9927 39.5491 17.3838 39.001L11.0761 33.3241C10.6585 32.9482 10.6585 32.2934 11.0761 31.9175L17.3838 26.2405C17.9927 25.6925 18.9629 26.1247 18.9629 26.9438V29.1513H22.1898C28.8232 29.1513 34.8009 25.148 37.3266 19.0143C37.7212 18.056 39.1477 18.3382 39.1477 19.3746Z" fill="#F2F2E8"/>
</svg>
