<svg width="1320" height="449" viewBox="0 0 1320 449" fill="none" xmlns="http://www.w3.org/2000/svg">
<path d="M572.572 396.021L591.903 344.089H610.944L579.784 421.122C575.841 430.835 571.514 437.76 566.802 441.895C562.089 446.03 555.934 448.098 548.337 448.098C546.317 448.098 544.201 447.954 541.989 447.665V431.941C544.008 432.23 545.789 432.374 547.327 432.374C551.751 432.374 555.02 431.557 557.136 429.922C559.348 428.287 561.031 426.075 562.185 423.286C562.955 421.651 563.339 419.968 563.339 418.237C563.339 416.506 562.954 414.823 562.185 413.189L534.488 344.089H553.386L572.572 396.021ZM286.56 342.647C292.234 342.647 297.572 344.041 302.573 346.83C307.67 349.619 311.758 353.947 314.835 359.813C318.009 365.679 319.596 372.94 319.596 381.596C319.596 390.251 318.009 397.512 314.835 403.379C311.758 409.245 307.67 413.572 302.573 416.361C297.572 419.15 292.234 420.545 286.56 420.545C281.175 420.545 276.414 419.439 272.279 417.227C268.144 414.919 265.162 411.937 263.335 408.283V446.512H244.87V344.089H263.335V354.909C265.162 351.254 268.144 348.32 272.279 346.108C276.414 343.8 281.175 342.647 286.56 342.647ZM1179.36 342.647C1185.03 342.647 1190.37 344.041 1195.37 346.83C1200.47 349.619 1204.56 353.947 1207.63 359.813C1210.81 365.679 1212.39 372.94 1212.39 381.596C1212.39 390.251 1210.81 397.512 1207.63 403.379C1204.56 409.245 1200.47 413.572 1195.37 416.361C1190.37 419.15 1185.03 420.545 1179.36 420.545C1173.97 420.545 1169.21 419.439 1165.08 417.227C1160.94 414.919 1157.96 411.937 1156.13 408.283V446.512H1137.67V344.089H1156.13V354.909C1157.96 351.254 1160.94 348.32 1165.08 346.108C1169.21 343.8 1173.97 342.647 1179.36 342.647ZM1261.67 342.647C1267.34 342.647 1272.68 344.041 1277.68 346.83C1282.78 349.619 1286.86 353.947 1289.94 359.813C1293.12 365.679 1294.7 372.94 1294.7 381.596C1294.7 390.251 1293.12 397.512 1289.94 403.379C1286.86 409.245 1282.78 413.572 1277.68 416.361C1272.68 419.15 1267.34 420.545 1261.67 420.545C1256.28 420.545 1251.52 419.439 1247.39 417.227C1243.25 414.919 1240.27 411.937 1238.44 408.283V446.512H1219.98V344.089H1238.44V354.909C1240.27 351.254 1243.25 348.32 1247.39 346.108C1251.52 343.8 1256.28 342.647 1261.67 342.647ZM990.406 342.647C1000.89 342.647 1009.35 345.82 1015.8 352.167C1022.34 358.515 1025.61 368.277 1025.61 381.452C1025.61 383.279 1025.46 384.914 1025.17 386.356H971.077C971.654 393.473 973.673 398.714 977.135 402.08C980.693 405.35 985.598 406.984 991.849 406.984C996.273 406.984 999.784 406.072 1002.38 404.245C1004.98 402.417 1006.9 399.628 1008.15 395.877H1024.6C1022.67 404.148 1018.68 410.4 1012.62 414.631C1006.66 418.862 999.351 420.978 990.696 420.978C983.867 420.978 977.665 419.631 972.087 416.938C966.509 414.149 962.037 409.869 958.671 404.099C955.305 398.233 953.622 390.828 953.622 381.885C953.622 372.941 955.256 365.535 958.526 359.669C961.892 353.803 966.316 349.523 971.798 346.83C977.375 344.041 983.579 342.647 990.406 342.647ZM39.9588 316.824C51.5954 316.824 60.9242 319.469 67.9447 324.758C74.965 329.951 78.475 337.26 78.4751 346.685H59.0005C59.0004 342.262 57.3179 338.848 53.9525 336.444C50.5866 333.943 46.018 332.693 40.2479 332.693C34.2854 332.693 29.8614 333.943 26.9762 336.444C24.0911 338.944 22.6487 342.118 22.6487 345.964C22.6488 349.042 23.658 351.735 25.6775 354.043C27.7933 356.351 31.2081 357.938 35.9204 358.803L49.3359 361.399C60.4915 363.515 68.57 366.833 73.5709 371.353C78.668 375.873 81.2163 382.077 81.2163 389.963C81.2162 399.965 77.5618 407.563 70.253 412.756C62.944 417.949 53.2787 420.545 41.2575 420.545C28.3706 420.545 18.2724 417.611 10.9634 411.745C3.65473 405.782 0.000167032 397.56 0 387.078H19.4746C19.7633 392.367 21.6865 396.647 25.2446 399.917C28.8991 403.09 34.2849 404.677 41.4013 404.677C47.8446 404.677 52.7495 403.427 56.1155 400.927C59.4814 398.33 61.1649 394.675 61.165 389.963C61.165 386.117 59.8666 383.135 57.2704 381.019C54.6738 378.807 50.8259 377.22 45.7289 376.259L31.5914 373.517C22.5516 371.786 15.4836 368.708 10.3867 364.284C5.28977 359.86 2.74131 353.562 2.74121 345.388C2.74121 336.251 6.05915 329.23 12.695 324.325C19.4269 319.325 28.5148 316.824 39.9588 316.824ZM420.04 342.647C428.311 342.647 435.667 344.859 442.111 349.282C448.65 353.706 452.546 361.352 453.796 372.219H437.35C436.485 367.411 434.513 363.853 431.436 361.544C428.359 359.236 424.511 358.081 419.895 358.081C413.644 358.081 408.788 360.198 405.326 364.429C401.864 368.661 400.133 374.431 400.133 381.74C400.133 388.952 401.864 394.674 405.326 398.906C408.788 403.041 413.644 405.11 419.895 405.11C424.511 405.11 428.359 403.955 431.436 401.647C434.514 399.243 436.485 395.636 437.35 390.828H453.796C452.738 401.695 448.939 409.389 442.4 413.909C435.86 418.333 428.407 420.545 420.04 420.545C413.501 420.545 407.393 419.199 401.719 416.507C396.045 413.718 391.477 409.437 388.014 403.666C384.552 397.8 382.821 390.491 382.821 381.74C382.821 372.892 384.552 365.535 388.014 359.669C391.477 353.803 396.045 349.523 401.719 346.83C407.393 344.041 413.5 342.647 420.04 342.647ZM679.589 342.647C686.129 342.647 692.236 344.089 697.91 346.974C703.584 349.763 708.151 354.091 711.613 359.957C715.076 365.727 716.807 372.94 716.807 381.596C716.807 390.251 715.076 397.512 711.613 403.379C708.151 409.149 703.584 413.476 697.91 416.361C692.236 419.15 686.129 420.545 679.589 420.545C672.953 420.545 666.798 419.15 661.124 416.361C655.546 413.476 651.025 409.149 647.563 403.379C644.101 397.512 642.371 390.251 642.371 381.596C642.371 372.94 644.101 365.727 647.563 359.957C651.025 354.09 655.546 349.763 661.124 346.974C666.798 344.089 672.953 342.647 679.589 342.647ZM831.572 342.647C838.111 342.647 844.218 344.089 849.892 346.974C855.566 349.763 860.134 354.09 863.596 359.957C867.058 365.727 868.79 372.94 868.79 381.596C868.79 390.251 867.058 397.512 863.596 403.379C860.134 409.149 855.566 413.476 849.892 416.361C844.218 419.15 838.111 420.545 831.572 420.545C824.936 420.545 818.781 419.15 813.107 416.361C807.529 413.476 803.008 409.149 799.546 403.379C796.084 397.512 794.353 390.251 794.353 381.596C794.353 372.94 796.084 365.727 799.546 359.957C803.008 354.09 807.529 349.763 813.107 346.974C818.781 344.089 824.936 342.647 831.572 342.647ZM1094.72 342.647C1105.59 342.647 1113.48 344.667 1118.38 348.706C1123.29 352.649 1125.74 358.852 1125.74 367.315V419.103H1108.14V405.831H1107.42C1107.03 407.562 1105.88 409.582 1103.96 411.89C1102.03 414.198 1099.24 416.218 1095.59 417.949C1091.93 419.68 1087.56 420.545 1082.46 420.545C1075.63 420.545 1069.91 418.861 1065.3 415.495C1060.68 412.033 1058.37 406.841 1058.37 399.917C1058.37 392.993 1060.68 387.991 1065.3 384.914C1069.91 381.836 1076.16 379.769 1084.05 378.711L1098.76 376.692C1102.13 376.307 1104.39 375.633 1105.54 374.671C1106.7 373.613 1107.27 371.978 1107.27 369.767V368.18C1107.27 363.756 1106.12 360.678 1103.81 358.947C1101.6 357.216 1098.33 356.351 1094 356.351C1084.77 356.351 1080.15 359.909 1080.15 367.025V367.891L1062.7 368.18V365.295C1062.7 350.196 1073.37 342.647 1094.72 342.647ZM517.143 344.089H531.857V358.37H517.143V395.157C517.143 398.522 517.865 401.071 519.308 402.802C520.75 404.437 523.155 405.254 526.52 405.254H532.723V419.679C530.223 419.968 526.616 420.112 521.904 420.112C514.595 420.112 508.873 418.333 504.737 414.775C500.698 411.217 498.678 405.639 498.678 398.042V358.37H486.128V344.089H498.678V324.902H517.143V344.089ZM108.715 419.103H90.25V344.089H108.715V419.103ZM208.448 342.647C216.045 342.647 222.151 345.099 226.767 350.003C231.384 354.908 233.692 362.218 233.692 371.931V419.103H215.227V376.259C215.227 370.2 214.026 365.632 211.622 362.554C209.218 359.477 205.755 357.938 201.235 357.937C196.619 357.937 192.915 359.524 190.127 362.698C187.338 365.775 185.943 370.296 185.943 376.259V419.103H167.478V376.259C167.478 370.2 166.276 365.632 163.872 362.554C161.564 359.477 158.149 357.937 153.629 357.937C149.014 357.938 145.311 359.524 142.522 362.698C139.733 365.775 138.339 370.296 138.339 376.259V419.103H119.874V344.089H138.339V359.524H138.915C139.3 357.12 140.455 354.62 142.378 352.024C144.302 349.427 146.85 347.215 150.024 345.388C153.294 343.561 157.092 342.647 161.42 342.647C166.902 342.647 171.662 344.089 175.701 346.974C179.837 349.859 182.722 354.187 184.356 359.957C184.934 357.456 186.184 354.908 188.107 352.311C190.127 349.619 192.868 347.359 196.329 345.532C199.792 343.608 203.831 342.647 208.448 342.647ZM345.646 419.103H327.181V318.122H345.646V419.103ZM375.27 419.103H356.805V344.089H375.27V419.103ZM480.018 419.103H461.554V344.089H480.018V419.103ZM762.028 329.952H756.114C752.844 329.952 750.488 330.769 749.045 332.404C747.603 334.039 746.881 336.539 746.881 339.905V344.089H761.595V358.37H746.881V419.103H728.417V358.37H717.885V344.089H728.417V337.742C728.417 330.145 730.436 324.615 734.475 321.153C738.61 317.595 744.332 315.814 751.641 315.814H762.028V329.952ZM919.891 342.647C927.68 342.647 933.98 345.099 938.789 350.003C943.597 354.908 946.001 362.218 946.001 371.931V419.103H927.538V376.259C927.538 370.2 926.238 365.632 923.642 362.554C921.045 359.477 917.246 357.937 912.245 357.937C906.956 357.938 902.725 359.525 899.552 362.698C896.378 365.775 894.791 370.296 894.791 376.259V419.103H876.326V344.089H894.791V359.524H895.368C895.945 357.024 897.196 354.475 899.119 351.878C901.042 349.282 903.735 347.119 907.197 345.388C910.755 343.561 914.986 342.647 919.891 342.647ZM1107.27 383.904C1106.89 384.673 1106.07 385.25 1104.82 385.634C1103.67 386.019 1101.79 386.404 1099.2 386.789L1088.52 388.232C1084.48 388.905 1081.45 389.963 1079.43 391.406C1077.51 392.848 1076.55 394.916 1076.55 397.609C1076.55 400.397 1077.56 402.657 1079.58 404.388C1081.6 406.119 1084.72 406.984 1088.95 406.984C1092.9 406.984 1096.21 406.264 1098.91 404.821C1101.7 403.282 1103.76 401.455 1105.11 399.339C1106.55 397.223 1107.27 395.204 1107.27 393.281V383.904ZM282.233 358.081C276.751 358.081 272.086 360.101 268.239 364.14C264.392 368.18 262.469 373.998 262.469 381.596C262.469 389.193 264.392 395.012 268.239 399.051C272.086 403.09 276.751 405.11 282.233 405.11C287.811 405.11 292.524 403.09 296.37 399.051C300.313 395.012 302.284 389.193 302.284 381.596C302.284 373.998 300.313 368.18 296.37 364.14C292.524 360.101 287.811 358.081 282.233 358.081ZM679.589 358.081C673.723 358.081 668.915 360.054 665.164 363.997C661.509 367.94 659.682 373.806 659.682 381.596C659.682 389.386 661.509 395.252 665.164 399.195C668.915 403.138 673.723 405.11 679.589 405.11C685.359 405.11 690.072 403.138 693.727 399.195C697.477 395.252 699.353 389.385 699.353 381.596C699.353 373.806 697.477 367.94 693.727 363.997C690.072 360.054 685.359 358.081 679.589 358.081ZM831.572 358.081C825.706 358.081 820.896 360.054 817.145 363.997C813.491 367.94 811.664 373.806 811.664 381.596C811.664 389.386 813.491 395.252 817.145 399.195C820.896 403.138 825.706 405.11 831.572 405.11C837.342 405.11 842.054 403.138 845.708 399.195C849.459 395.252 851.334 389.386 851.334 381.596C851.334 373.806 849.459 367.94 845.708 363.997C842.054 360.054 837.342 358.081 831.572 358.081ZM1175.03 358.081C1169.55 358.081 1164.88 360.101 1161.04 364.14C1157.19 368.18 1155.27 373.998 1155.27 381.596C1155.27 389.193 1157.19 395.012 1161.04 399.051C1164.88 403.09 1169.55 405.11 1175.03 405.11C1180.61 405.11 1185.32 403.09 1189.17 399.051C1193.11 395.012 1195.08 389.193 1195.08 381.596C1195.08 373.998 1193.11 368.18 1189.17 364.14C1185.32 360.101 1180.61 358.081 1175.03 358.081ZM1257.34 358.081C1251.86 358.081 1247.19 360.101 1243.35 364.14C1239.5 368.18 1237.58 373.998 1237.58 381.596C1237.58 389.193 1239.5 395.012 1243.35 399.051C1247.19 403.09 1251.86 405.11 1257.34 405.11C1262.92 405.11 1267.63 403.09 1271.48 399.051C1275.42 395.012 1277.39 389.193 1277.39 381.596C1277.39 373.998 1275.42 368.18 1271.48 364.14C1267.63 360.101 1262.92 358.081 1257.34 358.081ZM990.119 356.784C984.541 356.784 980.117 358.419 976.847 361.688C973.577 364.958 971.654 369.766 971.077 376.113H1008.15C1007.96 370.151 1006.37 365.439 1003.39 361.977C1000.41 358.515 995.985 356.784 990.119 356.784ZM1304.97 320.506C1313.27 320.506 1320 327.234 1320 335.532C1320 343.831 1313.27 350.559 1304.97 350.559C1296.67 350.559 1289.94 343.831 1289.94 335.532C1289.95 327.233 1296.67 320.506 1304.97 320.506ZM1304.97 322.008C1297.5 322.008 1291.45 328.063 1291.45 335.532C1291.45 343.001 1297.5 349.056 1304.97 349.056C1312.44 349.056 1318.5 343.001 1318.5 335.532C1318.5 328.064 1312.44 322.009 1304.97 322.008ZM1311.39 337.593H1309.88V331.683L1299.84 341.725L1298.78 340.663L1308.82 330.621H1302.61V329.118H1311.39V337.593ZM99.4832 313.218C102.272 313.218 104.676 314.228 106.696 316.247C108.811 318.17 109.87 320.575 109.87 323.46C109.87 326.249 108.812 328.654 106.696 330.674C104.676 332.597 102.272 333.559 99.4832 333.559C96.5982 333.559 94.0973 332.597 91.9816 330.674C89.962 328.654 88.9528 326.249 88.9528 323.46C88.9529 320.575 89.9622 318.17 91.9816 316.247C94.0973 314.228 96.5982 313.218 99.4832 313.218ZM366.036 313.218C368.825 313.218 371.229 314.228 373.249 316.247C375.364 318.17 376.423 320.575 376.423 323.46C376.423 326.249 375.365 328.654 373.249 330.674C371.229 332.597 368.825 333.559 366.036 333.559C363.151 333.559 360.65 332.597 358.535 330.674C356.515 328.654 355.506 326.249 355.506 323.46C355.506 320.575 356.515 318.17 358.535 316.247C360.65 314.228 363.151 313.218 366.036 313.218ZM470.786 313.218C473.575 313.218 475.979 314.228 477.999 316.247C480.114 318.17 481.173 320.575 481.173 323.46C481.173 326.249 480.115 328.654 477.999 330.674C475.979 332.597 473.575 333.559 470.786 333.559C467.901 333.559 465.4 332.597 463.285 330.674C461.265 328.654 460.256 326.249 460.256 323.46C460.256 320.575 461.265 318.17 463.285 316.247C465.4 314.227 467.901 313.218 470.786 313.218ZM131.94 182.951C137.615 182.951 142.952 184.345 147.953 187.134C153.05 189.923 157.138 194.251 160.215 200.117C163.389 205.983 164.976 213.244 164.976 221.9C164.976 230.555 163.389 237.816 160.215 243.683C157.138 249.549 153.05 253.876 147.953 256.665C142.952 259.454 137.615 260.849 131.94 260.849C126.555 260.849 121.794 259.743 117.659 257.531C113.524 255.223 110.542 252.241 108.715 248.587V286.816H90.25V184.393H108.715V195.213C110.542 191.558 113.524 188.624 117.659 186.412C121.794 184.104 126.555 182.951 131.94 182.951ZM206.445 182.951C216.927 182.951 225.391 186.124 231.835 192.471C238.374 198.819 241.643 208.581 241.643 221.756C241.643 223.583 241.499 225.218 241.21 226.66H187.114C187.691 233.777 189.711 239.018 193.173 242.384C196.731 245.654 201.636 247.288 207.887 247.288C212.311 247.288 215.821 246.376 218.418 244.549C221.014 242.721 222.937 239.932 224.188 236.181H240.633C238.71 244.452 234.719 250.704 228.66 254.935C222.698 259.167 215.389 261.282 206.734 261.282C199.906 261.282 193.701 259.935 188.123 257.242C182.546 254.453 178.074 250.173 174.708 244.403C171.342 238.537 169.66 231.132 169.66 222.189C169.66 213.245 171.294 205.839 174.564 199.973C177.93 194.107 182.354 189.827 187.836 187.134C193.414 184.345 199.617 182.951 206.445 182.951ZM282.98 182.951C293.462 182.951 301.925 186.124 308.368 192.471C314.908 198.819 318.178 208.581 318.178 221.756C318.178 223.583 318.034 225.218 317.745 226.66H263.649C264.226 233.777 266.246 239.018 269.708 242.384C273.266 245.654 278.171 247.288 284.422 247.288C288.846 247.288 292.356 246.376 294.953 244.549C297.549 242.721 299.473 239.932 300.723 236.181H317.169C315.245 244.452 311.254 250.704 305.196 254.935C299.233 259.167 291.924 261.282 283.269 261.282C276.441 261.282 270.237 259.935 264.659 257.242C259.081 254.453 254.609 250.173 251.243 244.403C247.877 238.537 246.194 231.132 246.194 222.189C246.194 213.245 247.83 205.839 251.099 199.973C254.465 194.107 258.889 189.827 264.371 187.134C269.949 184.345 276.152 182.951 282.98 182.951ZM39.9588 157.128C51.5954 157.128 60.9242 159.773 67.9447 165.062C74.965 170.255 78.475 177.565 78.4751 186.989H59.0005C59.0004 182.566 57.3179 179.152 53.9525 176.748C50.5866 174.247 46.018 172.997 40.2479 172.997C34.2854 172.997 29.8614 174.247 26.9762 176.748C24.0911 179.248 22.6487 182.422 22.6487 186.269C22.6488 189.346 23.658 192.039 25.6775 194.347C27.7933 196.655 31.2081 198.242 35.9204 199.107L49.3359 201.703C60.4915 203.819 68.57 207.137 73.5709 211.657C78.668 216.177 81.2163 222.381 81.2163 230.267C81.2162 240.269 77.5618 247.867 70.253 253.06C62.944 258.253 53.2787 260.849 41.2575 260.849C28.3706 260.849 18.2724 257.915 10.9634 252.049C3.65473 246.086 0.000167032 237.864 0 227.382H19.4746C19.7633 232.671 21.6865 236.951 25.2446 240.221C28.8991 243.394 34.2849 244.981 41.4013 244.981C47.8446 244.981 52.7495 243.731 56.1155 241.231C59.4814 238.634 61.1649 234.979 61.165 230.267C61.165 226.421 59.8666 223.439 57.2704 221.323C54.6738 219.111 50.8259 217.524 45.7289 216.563L31.5914 213.821C22.5516 212.09 15.4836 209.012 10.3867 204.588C5.28977 200.164 2.74131 193.866 2.74121 185.692C2.74121 176.556 6.05915 169.534 12.695 164.629C19.4269 159.629 28.5148 157.128 39.9588 157.128ZM397.455 259.406H378.99V248.443C377.066 252.194 374.037 255.223 369.902 257.531C365.862 259.743 361.15 260.849 355.764 260.849C350.09 260.849 344.704 259.454 339.607 256.665C334.607 253.876 330.519 249.549 327.345 243.683C324.268 237.816 322.729 230.555 322.729 221.9C322.729 213.244 324.268 205.983 327.345 200.117C330.519 194.25 334.607 189.923 339.607 187.134C344.704 184.345 350.09 182.951 355.764 182.951C361.15 182.951 365.862 184.104 369.902 186.412C374.037 188.624 377.066 191.606 378.99 195.356V158.426H397.455V259.406ZM471.178 182.951C477.717 182.951 483.824 184.393 489.498 187.278C495.172 190.067 499.74 194.394 503.202 200.261C506.664 206.031 508.396 213.244 508.396 221.9C508.396 230.555 506.664 237.816 503.202 243.683C499.74 249.453 495.172 253.78 489.498 256.665C483.824 259.454 477.717 260.849 471.178 260.849C464.542 260.849 458.387 259.454 452.713 256.665C447.135 253.78 442.614 249.453 439.152 243.683C435.69 237.816 433.959 230.555 433.959 221.9C433.959 213.244 435.69 206.031 439.152 200.261C442.614 194.394 447.135 190.067 452.713 187.278C458.387 184.393 464.542 182.951 471.178 182.951ZM553.617 170.256H547.701C544.432 170.256 542.077 171.073 540.634 172.708C539.192 174.343 538.47 176.843 538.47 180.209V184.393H553.184V198.674H538.47V259.406H520.005V198.674H509.474V184.393H520.005V178.046C520.005 170.449 522.025 164.919 526.064 161.457C530.199 157.898 535.921 156.118 543.23 156.118H553.617V170.256ZM682.882 259.406H662.831L655.618 238.778H611.619L604.407 259.406H584.499L621.573 158.426H645.808L682.882 259.406ZM707.802 259.406H688.904V158.426H707.802V259.406ZM127.613 198.385C122.131 198.385 117.467 200.406 113.621 204.444C109.774 208.484 107.849 214.302 107.849 221.9C107.849 229.497 109.774 235.316 113.621 239.355C117.467 243.394 122.131 245.414 127.613 245.414C133.191 245.414 137.904 243.394 141.75 239.355C145.693 235.316 147.664 229.497 147.664 221.9C147.664 214.302 145.693 208.484 141.75 204.444C137.904 200.405 133.191 198.385 127.613 198.385ZM359.948 198.385C354.37 198.385 349.657 200.405 345.81 204.444C341.964 208.484 340.04 214.302 340.04 221.9C340.04 229.497 341.964 235.316 345.81 239.355C349.657 243.394 354.37 245.414 359.948 245.414C365.526 245.414 370.239 243.394 374.085 239.355C377.932 235.316 379.855 229.497 379.855 221.9C379.855 214.302 377.932 208.484 374.085 204.444C370.239 200.405 365.526 198.385 359.948 198.385ZM471.178 198.385C465.312 198.385 460.502 200.358 456.751 204.301C453.097 208.244 451.271 214.11 451.271 221.9C451.271 229.69 453.097 235.556 456.751 239.499C460.502 243.442 465.312 245.414 471.178 245.414C476.948 245.414 481.66 243.442 485.314 239.499C489.065 235.556 490.94 229.69 490.94 221.9C490.94 214.11 489.065 208.244 485.314 204.301C481.66 200.358 476.948 198.385 471.178 198.385ZM616.667 224.641H650.712L634.268 177.901H633.113L616.667 224.641ZM206.156 197.088C200.578 197.088 196.155 198.723 192.885 201.992C189.616 205.262 187.691 210.07 187.114 216.417H224.188C223.995 210.455 222.408 205.743 219.427 202.281C216.446 198.819 212.022 197.088 206.156 197.088ZM282.691 197.088C277.113 197.088 272.689 198.723 269.419 201.992C266.149 205.262 264.226 210.071 263.649 216.417H300.723C300.53 210.455 298.944 205.743 295.962 202.281C292.981 198.819 288.557 197.088 282.691 197.088ZM735.192 139.193C743.491 139.193 750.219 145.92 750.219 154.219C750.219 162.518 743.491 169.246 735.192 169.246C726.893 169.246 720.164 162.518 720.164 154.219C720.164 145.92 726.893 139.193 735.192 139.193ZM735.192 140.695C727.723 140.695 721.668 146.75 721.668 154.219C721.668 161.688 727.723 167.743 735.192 167.743C742.661 167.743 748.716 161.688 748.716 154.219C748.716 146.75 742.661 140.696 735.192 140.695ZM741.605 156.28H740.103V150.37L730.061 160.412L728.998 159.35L739.04 149.308H732.834V147.805H741.605V156.28ZM304.111 33.5671C314.594 33.5671 323.056 36.7409 329.5 43.088C336.039 49.4353 339.31 59.197 339.31 72.3725C339.31 74.1996 339.165 75.8343 338.877 77.2767H284.78C285.357 84.3933 287.377 89.6345 290.839 93.0005C294.398 96.2703 299.303 97.9048 305.554 97.9048C309.977 97.9048 313.488 96.9921 316.084 95.165C318.681 93.3378 320.604 90.5482 321.854 86.7976H338.3C336.376 95.0683 332.386 101.32 326.327 105.552C320.365 109.783 313.055 111.898 304.4 111.898C297.572 111.898 291.368 110.551 285.79 107.859C280.212 105.07 275.74 100.79 272.374 95.0198C269.009 89.1535 267.325 81.7488 267.325 72.8054C267.325 63.8616 268.961 56.456 272.231 50.5896C275.597 44.7231 280.021 40.4436 285.502 37.7508C291.08 34.9619 297.283 33.5671 304.111 33.5671ZM117.945 33.5671C124.485 33.5671 130.592 35.0095 136.266 37.8946C141.94 40.6836 146.509 45.0109 149.971 50.8772C153.433 56.6475 155.164 63.8609 155.164 72.5163C155.164 81.1717 153.433 88.4328 149.971 94.2992C146.509 100.069 141.94 104.397 136.266 107.282C130.592 110.071 124.485 111.466 117.945 111.466C111.31 111.465 105.154 110.071 99.4803 107.282C93.9027 104.397 89.3831 100.069 85.921 94.2992C82.4588 88.4328 80.7277 81.1717 80.7277 72.5163C80.7277 63.8609 82.4588 56.6475 85.921 50.8772C89.3831 45.0112 93.9027 40.6835 99.4803 37.8946C105.154 35.0095 111.31 33.5671 117.945 33.5671ZM460.894 33.5671C467.433 33.5672 473.54 35.0097 479.214 37.8946C484.888 40.6835 489.456 45.011 492.918 50.8772C496.381 56.6475 498.112 63.8609 498.112 72.5163C498.112 81.1717 496.381 88.4328 492.918 94.2992C489.456 100.069 484.888 104.397 479.214 107.282C473.54 110.071 467.433 111.465 460.894 111.466C454.258 111.466 448.103 110.071 442.429 107.282C436.851 104.397 432.331 100.069 428.868 94.2992C425.406 88.4328 423.675 81.1717 423.675 72.5163C423.675 63.8609 425.406 56.6475 428.868 50.8772C432.331 45.011 436.851 40.6835 442.429 37.8946C448.103 35.0096 454.258 33.5671 460.894 33.5671ZM597.729 45.8292C599.556 42.1747 602.537 39.2408 606.673 37.0288C610.808 34.7208 615.568 33.5671 620.954 33.5671C626.628 33.5671 631.966 34.9619 636.967 37.7508C642.064 40.5398 646.151 44.8671 649.229 50.7334C652.402 56.5998 653.989 63.861 653.989 72.5163C653.989 81.1717 652.402 88.4328 649.229 94.2992C646.151 100.166 642.064 104.493 636.967 107.282C631.966 110.071 626.628 111.466 620.954 111.466C615.568 111.465 610.808 110.36 606.673 108.148C602.537 105.84 599.556 102.858 597.729 99.2035V110.023H579.264V9.04298H597.729V45.8292ZM724.81 33.5671C731.35 33.5671 737.457 35.0095 743.131 37.8946C748.805 40.6835 753.372 45.0113 756.834 50.8772C760.297 56.6475 762.028 63.8609 762.028 72.5163C762.028 81.1717 760.297 88.4328 756.834 94.2992C753.372 100.069 748.805 104.397 743.131 107.282C737.457 110.071 731.35 111.466 724.81 111.466C718.174 111.466 712.019 110.071 706.345 107.282C700.767 104.397 696.247 100.069 692.784 94.2992C689.322 88.4328 687.593 81.1716 687.593 72.5163C687.593 63.8609 689.322 56.6475 692.784 50.8772C696.247 45.0108 700.767 40.6836 706.345 37.8946C712.019 35.0095 718.174 33.5671 724.81 33.5671ZM803.881 33.5671C812.152 33.5672 819.508 35.7792 825.952 40.2029C832.491 44.6268 836.387 52.2721 837.637 63.1393H821.191C820.326 58.3311 818.355 54.7731 815.277 52.465C812.2 50.157 808.353 49.0019 803.737 49.0018C797.486 49.0018 792.629 51.1185 789.167 55.35C785.705 59.5815 783.974 65.3513 783.974 72.6601C783.974 79.8728 785.705 85.5949 789.167 89.8264C792.629 93.9618 797.486 96.0308 803.737 96.0308C808.353 96.0307 812.2 94.8756 815.277 92.5676C818.355 90.1634 820.326 86.5565 821.191 81.7481H837.637C836.579 92.6154 832.78 100.31 826.241 104.83C819.701 109.254 812.248 111.465 803.881 111.466C797.341 111.466 791.234 110.12 785.56 107.427C779.886 104.638 775.318 100.357 771.855 94.5869C768.393 88.7205 766.662 81.4113 766.662 72.6601C766.662 63.8128 768.393 56.4559 771.855 50.5896C775.317 44.7233 779.886 40.4436 785.56 37.7508C791.234 34.9619 797.341 33.5671 803.881 33.5671ZM952.162 33.5671C960.432 33.5672 967.789 35.7792 974.232 40.2029C980.772 44.6268 984.667 52.2721 985.917 63.1393H969.472C968.606 58.3312 966.635 54.7731 963.558 52.465C960.48 50.1569 956.633 49.0018 952.016 49.0018C945.765 49.0019 940.91 51.1187 937.447 55.35C933.985 59.5815 932.254 65.3513 932.254 72.6601C932.254 79.8729 933.985 85.5949 937.447 89.8264C940.91 93.9617 945.765 96.0307 952.016 96.0308C956.633 96.0308 960.48 94.8757 963.558 92.5676C966.635 90.1634 968.606 86.5564 969.472 81.7481H985.917C984.86 92.6152 981.061 100.31 974.521 104.83C967.982 109.253 960.528 111.465 952.162 111.466C945.622 111.466 939.514 110.12 933.84 107.427C928.166 104.638 923.598 100.357 920.136 94.5869C916.674 88.7205 914.943 81.4114 914.943 72.6601C914.943 63.8127 916.674 56.4559 920.136 50.5896C923.598 44.7232 928.166 40.4436 933.84 37.7508C939.515 34.9619 945.622 33.5671 952.162 33.5671ZM1107.32 33.5671C1118.19 33.5671 1126.08 35.5871 1130.98 39.6262C1135.89 43.5692 1138.34 49.772 1138.34 58.235V110.023H1120.74V96.7514H1120.02C1119.63 98.4824 1118.48 100.502 1116.56 102.81C1114.63 105.119 1111.84 107.139 1108.19 108.87C1104.53 110.6 1100.16 111.465 1095.06 111.466C1088.23 111.466 1082.51 109.782 1077.89 106.416C1073.28 102.954 1070.97 97.7612 1070.97 90.8375C1070.97 83.9134 1073.28 78.9117 1077.89 75.8342C1082.51 72.7568 1088.76 70.6892 1096.65 69.6313L1111.36 67.6121C1114.73 67.2274 1116.99 66.5531 1118.14 65.5914C1119.3 64.5335 1119.87 62.8991 1119.87 60.6871V59.1008C1119.87 54.6771 1118.72 51.5987 1116.41 49.8676C1114.2 48.1365 1110.93 47.2717 1106.6 47.2717C1097.37 47.2717 1092.75 50.8295 1092.75 57.9459V58.8117L1075.3 59.1008V56.2158C1075.3 41.1171 1085.97 33.5673 1107.32 33.5671ZM41.8342 9.04298C54.4327 9.04298 63.858 12.0245 70.1092 17.9871C76.4563 23.8535 79.63 31.8844 79.63 42.0784C79.63 52.1762 76.4564 60.207 70.1092 66.1696C63.858 72.036 54.4327 74.9684 41.8342 74.9684H21.0609V110.023H2.16303V9.04298H41.8342ZM186.282 91.9909H186.858L203.159 35.0096H219.172L235.472 91.9909H236.051L250.043 35.0096H267.642L247.158 110.023H226.384L211.237 59.5337L195.946 110.023H175.173L154.834 35.0096H172.288L186.282 91.9909ZM387.876 34.4329C389.992 34.4329 391.916 34.6726 393.646 35.1534V50.7334C391.435 50.4449 389.511 50.3005 387.876 50.3005C381.241 50.3005 375.806 52.3681 371.574 56.5034C367.343 60.5425 365.228 66.7457 365.228 75.1123V110.023H346.763V35.0096H365.228V52.8979H365.661C367.007 47.4162 369.555 42.9922 373.306 39.6262C377.057 36.1641 381.914 34.4329 387.876 34.4329ZM543.333 20.8721H537.418C534.148 20.8723 531.793 21.6898 530.35 23.3243C528.908 24.9591 528.186 27.46 528.186 30.8259V35.0096H542.9V49.2909H528.186V110.023H509.721V49.2909H499.19V35.0096H509.721V28.6629C509.721 21.0655 511.741 15.5355 515.78 12.0733C519.915 8.51496 525.637 6.73469 532.946 6.73467H543.333V20.8721ZM680.04 110.023H661.575V9.04298H680.04V110.023ZM863.86 68.6217L894.442 35.0096H914.926L884.201 67.1792L918.966 110.023H898.482L872.948 78.8631L863.86 88.3839V110.023H845.395V9.04298H863.86V68.6217ZM1012.14 50.4443H1012.72C1013.29 47.9441 1014.55 45.3952 1016.47 42.7989C1018.39 40.2025 1021.08 38.0393 1024.55 36.3083C1028.1 34.4812 1032.34 33.5672 1037.24 33.5671C1045.03 33.5671 1051.33 36.019 1056.14 40.9235C1060.95 45.8282 1063.35 53.1384 1063.35 62.8517V110.023H1044.89V67.1792C1044.89 61.1204 1043.59 56.5521 1040.99 53.4746C1038.39 50.3972 1034.6 48.858 1029.59 48.858C1024.31 48.8581 1020.07 50.4451 1016.9 53.6184C1013.73 56.6959 1012.14 61.2166 1012.14 67.1792V110.023H993.676V9.04298H1012.14V50.4443ZM1168.03 110.023H1149.56V35.0096H1168.03V110.023ZM1222.75 33.5671C1230.54 33.5671 1236.84 36.0189 1241.65 40.9235C1246.46 45.8282 1248.86 53.1384 1248.86 62.8517V110.023H1230.4V67.1792C1230.4 61.1205 1229.1 56.5521 1226.5 53.4746C1223.91 50.3972 1220.11 48.858 1215.11 48.858C1209.82 48.858 1205.58 50.4448 1202.41 53.6184C1199.24 56.6959 1197.65 61.2166 1197.65 67.1792V110.023H1179.19V35.0096H1197.65V50.4443H1198.23C1198.8 47.944 1200.06 45.3953 1201.98 42.7989C1203.9 40.2024 1206.59 38.0393 1210.06 36.3083C1213.61 34.4811 1217.85 33.5671 1222.75 33.5671ZM1119.87 74.8246C1119.49 75.5938 1118.67 76.1701 1117.42 76.5548C1116.27 76.9394 1114.39 77.325 1111.8 77.7096L1101.12 79.1522C1097.08 79.8254 1094.05 80.8838 1092.03 82.3263C1090.11 83.7688 1089.15 85.8366 1089.15 88.5292C1089.15 91.318 1090.16 93.5779 1092.18 95.3088C1094.2 97.0396 1097.32 97.9047 1101.55 97.9048C1105.5 97.9048 1108.81 97.1842 1111.51 95.7417C1114.3 94.203 1116.36 92.3751 1117.71 90.2593C1119.15 88.1438 1119.87 86.1249 1119.87 84.2017V74.8246ZM117.945 49.0018C112.079 49.0018 107.271 50.9742 103.52 54.9171C99.8657 58.8601 98.0378 64.7265 98.0378 72.5163C98.0378 80.3062 99.8657 86.1725 103.52 90.1155C107.271 94.0584 112.079 96.0308 117.945 96.0308C123.716 96.0308 128.428 94.0585 132.083 90.1155C135.833 86.1725 137.709 80.3061 137.709 72.5163C137.709 64.7266 135.833 58.8601 132.083 54.9171C128.428 50.9741 123.716 49.0018 117.945 49.0018ZM460.894 49.0018C455.028 49.0018 450.218 50.9741 446.468 54.9171C442.813 58.8601 440.987 64.7266 440.987 72.5163C440.987 80.3061 442.813 86.1725 446.468 90.1155C450.218 94.0585 455.028 96.0308 460.894 96.0308C466.664 96.0307 471.376 94.0583 475.03 90.1155C478.781 86.1725 480.656 80.3062 480.656 72.5163C480.656 64.7265 478.781 58.8601 475.03 54.9171C471.376 50.9743 466.664 49.002 460.894 49.0018ZM616.626 49.0018C611.145 49.0018 606.481 51.0221 602.634 55.0609C598.787 59.1001 596.863 64.9188 596.863 72.5163C596.863 80.1138 598.787 85.9325 602.634 89.9717C606.481 94.0105 611.145 96.0308 616.626 96.0308C622.204 96.0308 626.917 94.0108 630.764 89.9717C634.707 85.9325 636.678 80.1138 636.678 72.5163C636.678 64.9188 634.707 59.1001 630.764 55.0609C626.917 51.0218 622.204 49.0018 616.626 49.0018ZM724.81 49.0018C718.944 49.0018 714.136 50.9743 710.385 54.9171C706.731 58.8601 704.903 64.7265 704.903 72.5163C704.903 80.3062 706.731 86.1725 710.385 90.1155C714.136 94.0583 718.944 96.0308 724.81 96.0308C730.58 96.0308 735.293 94.0585 738.948 90.1155C742.698 86.1725 744.574 80.306 744.574 72.5163C744.574 64.7267 742.698 58.8601 738.948 54.9171C735.293 50.9741 730.58 49.0018 724.81 49.0018ZM303.822 47.7046C298.244 47.7047 293.82 49.3391 290.55 52.6088C287.281 55.8785 285.357 60.6871 284.78 67.0339H321.854C321.662 61.0716 320.075 56.3599 317.094 52.8979C314.112 49.4357 309.689 47.7046 303.822 47.7046ZM21.0609 58.3788H41.1122C47.4595 58.3788 52.1722 56.9841 55.2497 54.1951C58.4233 51.31 60.0101 47.2715 60.0101 42.0784C60.0101 36.9543 58.5215 33.0032 55.5432 30.2257L54.9562 29.6945C51.8759 26.987 47.261 25.6326 41.1122 25.6326H21.0609V58.3788ZM1258.12 0.327759C1266.42 0.328155 1273.15 7.05571 1273.15 15.3545C1273.15 23.6533 1266.42 30.3809 1258.12 30.3813C1249.82 30.3813 1243.09 23.6536 1243.09 15.3545C1243.09 7.05546 1249.82 0.327759 1258.12 0.327759ZM1258.12 1.83043C1250.65 1.83043 1244.6 7.88537 1244.6 15.3545C1244.6 22.8236 1250.65 28.8786 1258.12 28.8786C1265.59 28.8782 1271.65 22.8234 1271.65 15.3545C1271.65 7.88561 1265.59 1.83083 1258.12 1.83043ZM1158.8 4.13874C1161.58 4.13881 1163.99 5.14817 1166.01 7.16757C1168.12 9.09085 1169.18 11.4953 1169.18 14.3801C1169.18 17.1691 1168.12 19.5745 1166.01 21.5941C1163.99 23.5173 1161.58 24.4791 1158.8 24.4791C1155.91 24.4791 1153.41 23.5174 1151.29 21.5941C1149.27 19.5745 1148.27 17.1691 1148.27 14.3801C1148.27 11.4953 1149.27 9.09085 1151.29 7.16757C1153.41 5.14809 1155.91 4.13874 1158.8 4.13874ZM1264.54 17.4148H1263.03V11.5054L1252.99 21.5472L1251.93 20.4847L1261.97 10.4429H1255.77V8.94026H1264.54V17.4148Z" fill="#BBFF2A"/>
</svg>
