<svg width="1280" height="193" viewBox="0 0 1280 193" fill="none" xmlns="http://www.w3.org/2000/svg">
<path opacity="0.1" d="M159.139 118.599L186.679 44.6104H213.808L169.414 154.359C158.11 182.105 146.19 192.792 124.61 192.792C121.733 192.792 118.65 192.587 115.567 192.176V169.773C118.445 170.184 120.911 170.391 123.172 170.391C135.709 170.391 141.052 165.458 144.341 157.442C145.368 155.182 145.985 152.715 145.985 150.249C145.985 147.783 145.368 145.316 144.341 143.056L104.881 44.6104H131.804L159.139 118.599ZM218.803 121.287C229.695 121.287 237.505 129.302 237.505 146.565C237.505 167.94 226.201 179.038 208.115 179.038H202.978V166.502H204.416C219.213 166.502 221.885 163.624 221.885 152.938C210.376 152.937 202.978 145.744 202.978 136.701C202.978 127.864 209.554 121.287 218.803 121.287ZM644.835 121.287C655.728 121.287 663.538 129.302 663.538 146.565C663.538 167.94 652.234 179.038 634.148 179.038H629.01V166.502H630.448C645.246 166.502 647.918 163.624 647.918 152.938C636.409 152.937 629.01 145.744 629.01 136.701C629.01 127.864 635.587 121.287 644.835 121.287ZM574.338 42.5557C604.139 42.5557 624.485 60.2303 624.485 97.8408C624.485 100.513 624.28 102.774 623.869 104.829H546.798C548.442 125.176 558.513 134.219 576.394 134.219C588.93 134.219 596.123 129.08 599.617 118.394H623.047C617.498 142.028 599.412 154.154 574.749 154.154C545.77 154.154 521.93 136.89 521.93 98.457C521.93 59.8193 545.359 42.5557 574.338 42.5557ZM1064.25 42.5557C1094.05 42.5557 1114.4 60.2303 1114.4 97.8408C1114.4 100.513 1114.19 102.774 1113.78 104.829H1036.71C1038.36 125.176 1048.43 134.219 1066.31 134.219C1078.84 134.219 1086.04 129.08 1089.53 118.394H1112.96C1107.41 142.028 1089.32 154.154 1064.66 154.154C1035.68 154.154 1011.84 136.89 1011.84 98.457C1011.84 59.8193 1035.27 42.5558 1064.25 42.5557ZM511.122 151.482H484.815V135.862C479.266 146.549 467.141 153.537 451.727 153.537C427.475 153.537 404.662 135.656 404.662 98.0459C404.662 60.4357 427.475 42.5557 451.727 42.5557C467.141 42.5557 479.266 49.5434 484.815 60.2305V7.61621H511.122V151.482ZM765.994 42.5557C793.945 42.5558 819.019 60.8475 819.019 98.0469C819.018 135.246 793.945 153.537 765.994 153.537C737.838 153.537 712.969 135.246 712.969 98.0469C712.969 60.8474 737.838 42.5557 765.994 42.5557ZM1164.48 42.5557C1191.61 42.5558 1206.4 55.2978 1207.02 78.1104H1185.23C1184 67.6291 1177.42 62.2852 1165.3 62.2852C1154 62.2852 1147.01 66.6017 1147.01 73.7949C1147.01 79.755 1151.73 83.8656 1160.16 85.5098L1180.51 90.0312C1199.62 94.3472 1211.13 102.773 1211.13 120.037C1211.13 131.341 1206.81 139.562 1197.98 145.111C1189.14 150.66 1177.84 153.537 1164.27 153.537C1136.11 153.537 1119.06 141.411 1118.85 117.776H1142.28C1143.72 128.464 1151.12 133.808 1164.68 133.808C1176.4 133.808 1184 129.491 1184 120.654C1184 114.283 1180.3 111.405 1171.46 109.145L1151.73 104.829C1131.8 100.308 1121.93 90.0311 1121.93 74.2061C1121.93 54.2704 1138.38 42.5557 1164.48 42.5557ZM1257.8 44.6104H1278.77V64.957H1257.8V117.365C1257.8 127.025 1261.5 131.752 1271.16 131.752H1280V152.305C1276.51 152.716 1271.37 152.921 1264.59 152.921C1243.83 152.921 1231.5 143.055 1231.5 121.476V64.957H1213.62V44.6104H1231.5V17.2764H1257.8V44.6104ZM62.8896 24.4697H54.4629C45.2148 24.4699 41.3096 28.9911 41.3096 38.6504V44.6104H62.2734V64.957H41.3096V151.482H15.0029V64.957H0V44.6104H15.0029V35.5674C15.003 13.9879 27.3344 4.32825 48.0918 4.32812H62.8896V24.4697ZM97.1797 151.482H70.873V7.61621H97.1797V151.482ZM350.648 43.7881C353.731 43.7881 356.403 44.1999 358.869 44.8164V67.0127C355.786 66.6017 352.909 66.3955 350.648 66.3955C331.74 66.3955 318.381 77.9055 318.381 101.746V151.482H292.074V44.6104H318.381V70.0957H318.998C322.903 54.476 333.59 43.7881 350.648 43.7881ZM393.902 151.482H367.596V44.6104H393.902V151.482ZM888.329 43.7881C891.412 43.7881 894.084 44.1999 896.55 44.8164V67.0127C893.467 66.6017 890.59 66.3955 888.329 66.3955C869.421 66.3956 856.062 77.9056 856.062 101.746V151.482H829.756V44.6104H856.062V70.0957H856.679C860.584 54.4761 871.271 43.7881 888.329 43.7881ZM1003.04 43.7881C1006.13 43.7881 1008.8 44.1998 1011.27 44.8164V67.0127C1008.18 66.6017 1005.3 66.3955 1003.04 66.3955C984.136 66.3957 970.777 77.9057 970.777 101.746V151.482H944.471V44.6104H970.777V70.0957H971.394C975.298 54.4761 985.986 43.7882 1003.04 43.7881ZM457.687 64.5459C441.861 64.5459 429.324 76.4664 429.324 98.0459C429.324 119.626 441.861 131.547 457.687 131.547C473.512 131.547 486.049 119.626 486.049 98.0459C486.049 76.4664 473.512 64.5459 457.687 64.5459ZM765.994 64.5459C749.347 64.5459 737.632 75.8505 737.632 98.0469C737.632 120.243 749.347 131.547 765.994 131.547C782.436 131.547 794.15 120.243 794.15 98.0469C794.15 75.8506 782.436 64.546 765.994 64.5459ZM573.927 62.6963C558.102 62.6964 548.442 72.1506 546.798 90.2363H599.617C599.001 73.1782 590.574 62.6963 573.927 62.6963ZM1063.84 62.6963C1048.01 62.6964 1038.36 72.1507 1036.71 90.2363H1089.53C1088.91 73.1782 1080.49 62.6963 1063.84 62.6963ZM380.749 0.628906C388.764 0.628911 395.547 6.99996 395.547 15.2207C395.547 23.2361 388.764 29.6074 380.749 29.6074C372.528 29.6074 365.746 23.2361 365.746 15.2207C365.746 6.99996 372.528 0.628906 380.749 0.628906Z" fill="#F2F2E8"/>
</svg>
