<svg width="48" height="48" viewBox="0 0 48 48" fill="none" xmlns="http://www.w3.org/2000/svg">
<path d="M24 3C23.6022 3 23.2206 3.15804 22.9393 3.43934C22.658 3.72064 22.5 4.10218 22.5 4.5V43.5C22.5 43.8978 22.658 44.2794 22.9393 44.5607C23.2206 44.842 23.6022 45 24 45C24.3978 45 24.7794 44.842 25.0607 44.5607C25.342 44.2794 25.5 43.8978 25.5 43.5V4.5C25.5 4.10218 25.342 3.72064 25.0607 3.43934C24.7794 3.15804 24.3978 3 24 3ZM30 13.5C29.6022 13.5 29.2206 13.658 28.9393 13.9393C28.658 14.2206 28.5 14.6022 28.5 15V34.5C28.5 34.8978 28.658 35.2794 28.9393 35.5607C29.2206 35.842 29.6022 36 30 36C30.3978 36 30.7794 35.842 31.0607 35.5607C31.342 35.2794 31.5 34.8978 31.5 34.5V15C31.5 14.6022 31.342 14.2206 31.0607 13.9393C30.7794 13.658 30.3978 13.5 30 13.5ZM36 9C35.6022 9 35.2206 9.15804 34.9393 9.43934C34.658 9.72064 34.5 10.1022 34.5 10.5V39C34.5 39.3978 34.658 39.7794 34.9393 40.0607C35.2206 40.342 35.6022 40.5 36 40.5C36.3978 40.5 36.7794 40.342 37.0607 40.0607C37.342 39.7794 37.5 39.3978 37.5 39V10.5C37.5 10.1022 37.342 9.72064 37.0607 9.43934C36.7794 9.15804 36.3978 9 36 9ZM42 18C41.6022 18 41.2206 18.158 40.9393 18.4393C40.658 18.7206 40.5 19.1022 40.5 19.5V30C40.5 30.3978 40.658 30.7794 40.9393 31.0607C41.2206 31.342 41.6022 31.5 42 31.5C42.3978 31.5 42.7794 31.342 43.0607 31.0607C43.342 30.7794 43.5 30.3978 43.5 30V19.5C43.5 19.1022 43.342 18.7206 43.0607 18.4393C42.7794 18.158 42.3978 18 42 18ZM18 13.5C17.6022 13.5 17.2206 13.658 16.9393 13.9393C16.658 14.2206 16.5 14.6022 16.5 15V34.5C16.5 34.8978 16.658 35.2794 16.9393 35.5607C17.2206 35.842 17.6022 36 18 36C18.3978 36 18.7794 35.842 19.0607 35.5607C19.342 35.2794 19.5 34.8978 19.5 34.5V15C19.5 14.6022 19.342 14.2206 19.0607 13.9393C18.7794 13.658 18.3978 13.5 18 13.5ZM12 9C11.6022 9 11.2206 9.15804 10.9393 9.43934C10.658 9.72064 10.5 10.1022 10.5 10.5V39C10.5 39.3978 10.658 39.7794 10.9393 40.0607C11.2206 40.342 11.6022 40.5 12 40.5C12.3978 40.5 12.7794 40.342 13.0607 40.0607C13.342 39.7794 13.5 39.3978 13.5 39V10.5C13.5 10.1022 13.342 9.72064 13.0607 9.43934C12.7794 9.15804 12.3978 9 12 9ZM6 18C5.60218 18 5.22064 18.158 4.93934 18.4393C4.65804 18.7206 4.5 19.1022 4.5 19.5V30C4.5 30.3978 4.65804 30.7794 4.93934 31.0607C5.22064 31.342 5.60218 31.5 6 31.5C6.39782 31.5 6.77936 31.342 7.06066 31.0607C7.34196 30.7794 7.5 30.3978 7.5 30V19.5C7.5 19.1022 7.34196 18.7206 7.06066 18.4393C6.77936 18.158 6.39782 18 6 18Z" fill="#F2F2E8"/>
</svg>
